<?xml version="1.0" standalone="no"?>
<!DOCTYPE svg PUBLIC "-//W3C//DTD SVG 1.1//EN" "http://www.w3.org/Graphics/SVG/1.1/DTD/svg11.dtd" >
<svg xmlns="http://www.w3.org/2000/svg">
<metadata>Generated by IcoMoon</metadata>
<defs>
<font id="iranicard" horiz-adv-x="1024">
<font-face units-per-em="1024" ascent="960" descent="-64" />
<missing-glyph horiz-adv-x="1024" />
<glyph unicode="&#x20;" horiz-adv-x="512" d="" />
<glyph unicode="&#xe900;" glyph-name="share" d="M768 298.667c-46.933 0-89.6-21.333-119.467-51.2l-226.133 132.267c0 17.067 4.267 29.867 4.267 46.933s-4.267 29.867-8.533 46.933l226.133 132.267c34.133-29.867 76.8-51.2 123.733-51.2 93.867 0 170.667 76.8 170.667 170.667s-76.8 170.667-170.667 170.667-170.667-76.8-170.667-170.667c0-17.067 4.267-29.867 8.533-46.933l-230.4-132.267c-29.867 29.867-72.533 51.2-119.467 51.2-93.867 0-170.667-76.8-170.667-170.667s76.8-170.667 170.667-170.667c46.933 0 89.6 21.333 119.467 51.2l226.133-132.267c0-17.067-4.267-29.867-4.267-46.933 0-93.867 76.8-170.667 170.667-170.667s170.667 76.8 170.667 170.667-76.8 170.667-170.667 170.667zM768 810.667c46.933 0 85.333-38.4 85.333-85.333s-38.4-85.333-85.333-85.333-85.333 38.4-85.333 85.333 38.4 85.333 85.333 85.333zM256 341.334c-46.933 0-85.333 38.4-85.333 85.333s38.4 85.333 85.333 85.333 85.333-38.4 85.333-85.333c0-46.933-38.4-85.333-85.333-85.333zM768 42.667c-46.933 0-85.333 38.4-85.333 85.333 0 17.067 4.267 29.867 12.8 42.667 0 0 0 0 0 0s0 0 0 0c12.8 25.6 42.667 42.667 72.533 42.667 46.933 0 85.333-38.4 85.333-85.333s-38.4-85.333-85.333-85.333z" />
<glyph unicode="&#xe901;" glyph-name="search" d="M925.867 72.534l-157.867 157.867c51.2 64 85.333 149.333 85.333 238.933 0 213.333-170.667 384-384 384s-384-170.667-384-384c0-213.333 170.667-384 384-384 89.6 0 174.933 29.867 238.933 85.333l157.867-157.867c8.533-8.533 21.333-12.8 29.867-12.8s21.333 4.267 29.867 12.8c17.067 17.067 17.067 42.667 0 59.733zM170.667 469.334c0 166.4 132.267 298.667 298.667 298.667s298.667-132.267 298.667-298.667c0-81.067-34.133-157.867-85.333-209.067 0 0 0 0 0 0s0 0 0 0c-55.467-55.467-128-85.333-209.067-85.333-170.667-4.267-302.933 128-302.933 294.4z" />
<glyph unicode="&#xe902;" glyph-name="chevron-with-circle-up" d="M530.381 574.208c-10.189 10.035-26.624 10.035-36.71 0l-146.637-143.718c-10.189-9.984-10.138-26.317 0-36.352 10.086-10.035 26.522-10.035 36.71 0l128.256 117.862 128.307-117.862c10.138-10.035 26.522-10.035 36.762 0 10.086 10.035 10.086 26.368 0 36.352l-146.688 143.718zM512 952.32c-271.462 0-491.52-220.058-491.52-491.52 0-271.514 220.058-491.52 491.52-491.52s491.52 220.006 491.52 491.52c0 271.462-220.058 491.52-491.52 491.52zM512 33.075c-236.288 0-427.725 191.488-427.725 427.725s191.437 427.725 427.725 427.725c236.186 0 427.725-191.488 427.725-427.725s-191.539-427.725-427.725-427.725z" />
<glyph unicode="&#xe903;" glyph-name="chevron-with-circle-right" d="M563.2 460.8l-117.862 128.307c-10.035 10.138-10.035 26.573 0 36.762 10.035 10.086 26.368 10.086 36.352 0l143.718-146.637c10.035-10.189 10.035-26.624 0-36.71l-143.718-146.637c-9.984-10.189-26.317-10.138-36.352 0-10.035 10.086-10.035 26.522 0 36.71l117.862 128.205zM512 952.32c271.462 0 491.52-220.058 491.52-491.52 0-271.514-220.058-491.52-491.52-491.52s-491.52 220.006-491.52 491.52c0 271.462 220.058 491.52 491.52 491.52zM512 33.075c236.186 0 427.725 191.488 427.725 427.725s-191.539 427.725-427.725 427.725c-236.288 0-427.725-191.488-427.725-427.725-0.051-236.237 191.437-427.725 427.725-427.725z" />
<glyph unicode="&#xe904;" glyph-name="chevron-with-circle-left" d="M578.662 625.869c-10.035 10.086-26.368 10.086-36.352 0l-143.718-146.688c-10.035-10.189-10.035-26.624 0-36.71l143.718-146.637c9.984-10.189 26.317-10.138 36.352 0 10.035 10.086 10.035 26.522 0 36.71l-117.862 128.256 117.862 128.307c10.035 10.138 10.035 26.522 0 36.762zM512 952.32c-271.462 0-491.52-220.058-491.52-491.52 0-271.514 220.058-491.52 491.52-491.52s491.52 220.006 491.52 491.52c0 271.462-220.058 491.52-491.52 491.52zM512 33.075c-236.288 0-427.725 191.488-427.725 427.725s191.437 427.725 427.725 427.725c236.186 0 427.725-191.488 427.725-427.725s-191.539-427.725-427.725-427.725z" />
<glyph unicode="&#xe905;" glyph-name="chevron-with-circle-down" d="M640.256 527.462l-128.256-117.862-128.307 117.862c-10.138 10.035-26.522 10.035-36.762 0-10.086-10.035-10.086-26.368 0-36.352l146.637-143.718c10.189-10.035 26.624-10.035 36.71 0l146.637 143.718c10.189 9.984 10.138 26.317 0 36.352-10.086 10.035-26.47 10.035-36.659 0zM512 952.32c-271.462 0-491.52-220.058-491.52-491.52 0-271.514 220.058-491.52 491.52-491.52s491.52 220.006 491.52 491.52c0 271.462-220.058 491.52-491.52 491.52zM512 33.075c-236.288 0-427.725 191.488-427.725 427.725s191.437 427.725 427.725 427.725c236.186 0 427.725-191.488 427.725-427.725s-191.539-427.725-427.725-427.725z" />
<glyph unicode="&#xe906;" glyph-name="chevron-thin-up" d="M132.198 261.581c-13.926-13.722-36.301-13.722-50.125 0s-13.875 35.891 0 49.613l404.89 400.896c13.824 13.722 36.198 13.722 50.125 0l404.89-400.896c13.824-13.722 13.824-35.891 0-49.613-13.875-13.722-36.301-13.722-50.074 0l-379.904 365.619-379.802-365.619z" />
<glyph unicode="&#xe907;" glyph-name="chevron-thin-right" d="M678.4 460.8l-365.619 379.904c-13.722 13.824-13.722 36.198 0 50.125 13.722 13.824 35.891 13.824 49.613 0l400.896-404.89c13.722-13.875 13.722-36.301 0-50.125l-400.896-404.89c-13.722-13.875-35.891-13.824-49.613 0-13.722 13.773-13.722 36.198 0 50.125l365.619 379.75z" />
<glyph unicode="&#xe908;" glyph-name="chevron-thin-left" d="M711.219 80.998c13.722-13.926 13.722-36.301 0-50.125s-35.891-13.875-49.613 0l-400.896 404.89c-13.722 13.824-13.722 36.198 0 50.125l400.896 404.89c13.722 13.824 35.891 13.824 49.613 0 13.722-13.875 13.722-36.301 0-50.125l-365.619-379.853 365.619-379.802z" />
<glyph unicode="&#xe909;" glyph-name="chevron-thin-down" d="M891.802 660.019c13.926 13.722 36.301 13.722 50.125 0s13.875-35.891 0-49.613l-404.89-400.896c-13.824-13.722-36.198-13.722-50.125 0l-404.89 400.896c-13.824 13.722-13.824 35.891 0 49.613 13.875 13.722 36.301 13.722 50.125 0l379.853-365.619 379.802 365.619z" />
<glyph unicode="&#xe90a;" glyph-name="adwords" d="M338.837 965.158h345.103c15.742-2.394 26.288-15.691 29.701-30.567 103.113-313.721 207.857-626.983 310.359-940.908v-8.814c-2.242-14.316-13.5-25.218-27.409-28.427h-255.032c-63.478 4.432-122.88 47.124-144.583 107.291-28.937 85.435-56.498 171.329-85.282 256.815-21.754-68.929-45.239-137.348-67.655-206.125-10.597-30.72-18.086-63.478-38.158-89.817-28.071-39.177-73.973-63.529-121.657-68.165h-255.898c-14.214 2.496-25.473 13.5-28.326 27.663v9.221c102.298 314.129 207.296 627.442 310.41 941.316 3.26 14.57 13.348 27.205 28.427 30.516zM369.149 898.777c-96.185-292.171-193.134-584.139-289.369-876.361 63.325-0.102 126.701-0.102 190.077 0 41.979-0.713 82.531 27.612 95.42 67.706 89.154 269.653 178.359 539.256 267.31 809.011-87.83-0.051-175.608 0.662-263.438-0.357zM547.305 426.718c37.394-112.131 74.125-224.465 111.417-336.646 12.889-39.941 53.238-68.216 95.064-67.655 63.478-0.102 126.956-0.102 190.484 0-88.339 267.717-176.882 535.333-265.323 802.948-43.813-132.916-87.932-265.731-131.643-398.647z" />
<glyph unicode="&#xe90b;" glyph-name="arrow" d="M424.856 939.572c49.528 45.558 136.255-17.763 104.281-78.994-116.82-138.136-243.461-268.33-361.535-405.42 118.073-131.448 238.028-261.224 355.056-393.718 29.466-36.362 3.971-92.369-39.706-102.191h-33.228c-7.941 5.224-23.824 15.673-31.765 20.898-129.358 142.315-257.881 285.257-386.821 428.199-21.943 22.152-16.927 60.186-7.941 87.144 133.538 148.376 266.658 297.169 401.659 444.082zM500.715 501.551c132.911 147.331 264.986 295.915 400.196 441.156 52.454 40.542 131.448-24.66 99.265-83.592-117.447-136.673-241.58-267.912-361.117-402.913 118.909-133.747 241.371-264.568 359.027-399.151 22.988-37.198-1.045-79.412-35.527-97.802h-44.513c-143.569 134.583-266.449 291.318-402.077 434.26-31.765 25.496-47.647 76.487-15.256 108.042z" />
<glyph unicode="&#xe90c;" glyph-name="bar-chart" d="M607.733 972.8h89.973c12.053-3.68 23.787-11.947 26.507-24.96 2.88-16.373 1.173-33.12 1.493-49.653-0.053-215.147 0-430.24 0-645.387 53.76 0 107.52 0 161.333 0-0.213 178.080 0.267 356.107-0.267 534.187-28.16 0.8-56.373 0.64-84.533 0.107-0.64-160.32 0.213-320.693-0.427-481.013 3.253-18.507-27.68-22.613-28.907-3.893-1.28 159.52-0.32 319.2-0.48 478.773-1.227 17.6 12.267 35.253 30.4 36.213 26.72 1.333 53.6 0.907 80.373 0.267 19.253 0.48 35.040-17.707 33.387-36.64 0.16-175.947 0.053-351.947 0.053-527.947 23.84-0.64 47.787 1.28 71.573-0.96 14.293-1.6 23.733-14.187 27.787-27.040v-75.093c-3.893-17.12-19.68-29.92-37.44-28.267-115.68-0.053-231.413-0.107-347.093 0.053-19.040-0.96-35.893 8.907-49.76 21.013-36.053 0.48-72.16 0.16-108.213 0.16-13.493-69.28-57.6-132.587-120.373-165.867-31.040-17.013-66.080-26.4-101.44-28.053h-24.907c-59.787 4.587-117.44 32.48-157.333 77.333-35.52 38.827-56.213 89.707-61.44 141.813v29.493c1.867 35.413 10.933 70.507 27.573 101.813 32.213 62.987 94.24 108.587 163.413 122.4 0.427 43.36-0.693 86.72 0.373 130.027-0.213 17.387 15.147 32.907 32.533 32.693 26.773 0.8 53.6 1.013 80.32-0.16 16.907-0.48 31.040-16 30.88-32.693 0.8-49.547-0.107-99.2 0.32-148.747 67.040-32.907 116.267-97.973 130.080-171.307 10.4 0 20.747 0 31.147 0-0.053 165.76 0.213 331.573-0.107 497.333-28.16 0.427-56.32 0.693-84.427-0.16-0.373-105.333 0.16-210.667-0.213-316 2.293-11.413-8.373-22.933-19.947-18.72-10.347 3.253-9.973 15.093-10.027 23.893 0.16 99.68 0.107 199.36 0 299.040-0.107 11.947 1.493 25.28 11.2 33.493 10.133 10.347 25.547 8.96 38.773 9.28 21.493-0.48 43.093 0.747 64.587-0.8 18.027-1.013 31.147-18.88 30.080-36.32 0.32-163.68 0-327.36 0.107-490.987 15.733-0.107 31.413-0.107 47.093 0.16 30.080 30.987 75.627 18.88 113.92 21.12-0.053 229.76 0.107 459.573-0.107 689.333-28.16 0.533-56.267 0.533-84.427 0-0.587-59.253 0.373-118.56-0.427-177.76 1.867-11.093-10.773-21.12-20.907-15.467-10.507 4.213-8.373 17.387-8.96 26.347 0.64 54.933-0.587 109.867 0.587 164.747-0.107 15.787 12.213 27.787 26.293 32.8zM229.28 554.187c-1.387-42.933-0.213-85.92-0.64-128.907 28.747 1.12 57.493-2.453 85.067-10.72 0.107 46.187-0.427 92.32 0.267 138.507-28.107 2.987-56.48 0.96-84.693 1.12zM223.093 394.187c-57.28-5.28-111.2-36.693-144.907-83.2-33.493-45.333-47.253-104.587-37.28-160.053 10.507-63.307 52.267-120.48 109.44-149.6 51.733-26.987 115.36-29.6 169.12-7.040 77.013 30.987 129.707 111.787 127.893 194.667-0.16 62.56-30.24 124.16-79.627 162.56-40.32 32.107-93.28 47.84-144.64 42.667zM597.387 197.493c-7.733-21.813 11.2-47.147 34.347-45.6 117.973-0.267 235.947-0.053 353.92-0.053 1.227 23.307 0.587 46.667 0.533 70.027-116.213 1.387-232.48 0.16-348.693 0.64-17.12 1.813-35.36-7.787-40.107-25.013zM477.067 201.12c0-9.333 0-18.667 0-28 29.813-0.053 59.627 0.213 89.44-0.16-0.16 9.44-0.107 18.827 0 28.213-29.813-0.107-59.627 0-89.44-0.053zM591.573 720c11.36 3.733 22.027-7.627 19.36-18.827 0.053-133.653 0.267-267.36-0.107-401.013 1.493-12.427-15.093-20.96-24.213-12.32-5.76 4.107-5.28 11.84-5.653 18.080 0.107 131.733-0.053 263.467 0.053 395.2-0.533 7.68 2.293 16.587 10.56 18.88zM137.013 331.84c60.32 46.88 151.253 46.72 211.467-0.267 68.427-50.133 91.413-150.613 52.267-225.76-33.067-69.547-114.88-111.467-190.667-95.84-32.107 6.080-62.507 21.28-86.453 43.52-10.347 7.573-5.12 26.027 7.573 26.773 8.213 1.493 13.76-6.347 19.893-10.24 39.627-33.28 97.813-41.973 145.547-22.24 49.173 19.253 84.48 66.4 92.32 118.24-84.48 0.587-168.96-0.587-253.44 0.533-14.613-0.053-17.92 23.573-4.373 28.693 22.507 2.773 45.227 0.533 67.84 1.227 0.48 34.933-0.8 69.92 0.533 104.8 0.427 16.587 28.907 16.427 28.693-0.32 1.227-34.773 0.053-69.653 0.48-104.48 28.32 0 56.64-0.053 84.96 0.053 0.48 21.973-0.96 43.947 0.533 65.867 1.173 15.68 27.147 16.107 28.64 0.32 1.387-21.92 0.267-43.893 0.213-65.867 15.68-0.533 31.36-0.533 47.093-0.267-3.573 43.307-25.067 85.12-60.267 110.987-42.453 32.64-103.36 38.507-151.147 14.4-60.16-28.48-94.933-100.213-80.533-165.12 2.4-17.067 12.053-31.893 16.107-48.48-0.48-12.427-17.333-18.933-25.76-9.653-45.067 75.307-22.4 181.707 48.48 233.12z" />
<glyph unicode="&#xe90d;" glyph-name="browser" d="M90.887 972.8h841.011c47.497-3.298 87.995-43.563 92.102-90.887v-841.126c-3.355-47.44-43.563-87.879-90.945-91.986h-840.953c-47.555 3.355-87.995 43.563-92.102 90.887v841.068c3.355 47.497 43.563 87.937 90.887 92.044zM66.994 868.491c-0.347-54.151 0.058-108.359-0.116-162.509 296.729 0 593.515 0 890.244 0-0.405 56.175 0.694 112.409-0.463 168.526-0.116 18.802-18.571 33.092-36.679 31.299-260.455 0.289-520.909 0-781.364 0.116-15.215-0.058-30.546 0.81-45.762-1.157-16.546-3.008-27.249-19.959-25.86-36.274zM66.878 638.698c0-74.11 0-148.22 0-222.329 133.467-0.058 266.876-0.058 400.286 0 0 74.11 0 148.22 0 222.329-133.409 0-266.819 0-400.286 0zM534.447 15.678c128.492 0.116 256.984-0.174 385.475 0.116 20.596-2.256 39.282 16.199 37.084 36.852 0.289 195.37 0 390.682 0.116 586.052-140.93 0-281.802 0-422.675 0-0.058-207.693-0.058-415.327 0-623.020zM66.878 349.433c0.116-98.871-0.174-197.742 0.116-296.555-2.256-20.654 16.257-39.34 36.968-37.084 121.029-0.289 242.115 0 363.202-0.116 0.058 111.252 0 222.503 0 333.755-133.409 0-266.819 0-400.286 0zM152.964 836.382c23.141 12.033 52.762-10.876 47.035-36.216-2.893-23.893-34.249-36.332-52.878-21.406-20.48 13.595-17.009 48.423 5.843 57.622zM285.91 836.093c23.026 12.554 53.167-10.066 47.729-35.58-2.719-24.24-34.596-36.852-53.398-21.464-19.786 13.653-16.546 47.555 5.67 57.043zM158.17 281.629c68.729 2.951 137.748 0.579 206.593 1.215 18.744 1.562 36.679-14.348 36.042-33.439 0.81-19.207-17.298-35.175-36.1-33.613-65.663-0.174-131.327-0.405-196.99 0.058-14.29-0.463-28.232 8.909-32.513 22.621-6.653 17.529 4.744 38.993 22.968 43.158zM158.113 148.046c60.804 3.471 121.954 0.347 182.874 1.562 18.282-0.405 41.712 3.471 53.63-14.29 15.273-19.323 0.984-52.010-24.009-52.646-67.688-0.926-135.492-0.463-203.238-0.231-16.199-0.81-31.299 11.918-33.555 27.885-3.066 16.372 8.042 33.902 24.298 37.72z" />
<glyph unicode="&#xe90e;" glyph-name="business" d="M212.729 972.8h597.753c38.649-3.571 75.251-30.825 85.228-69.002 37.179-120.464 76.091-240.351 112.535-361.026v-13.758c-3.518-45.056-28.357-87.329-65.799-112.587-0.473-122.565 0.158-245.182-0.315-367.747 1.103-49.992-40.225-95.416-89.902-99.879h-679.673c-50.097 3.938-91.74 49.73-90.69 99.984-0.473 122.565 0.158 245.077-0.263 367.642-37.599 25.154-62.805 67.321-65.851 112.587v13.496c36.601 121.41 75.723 242.032 113.218 363.179 10.765 36.917 46.054 63.33 83.758 67.111zM192.249 884.368c-32.715-103.923-65.221-207.951-97.831-311.979 48.942 0 97.884 0 146.826 0 18.379 111.17 36.759 222.287 55.086 333.404-25.311-0.263-50.675 0.63-75.934-0.263-12.603-0.158-24.891-8.822-28.147-21.163zM363.809 905.846c-18.379-111.17-36.759-222.287-55.033-333.456 56.661 0 113.375 0 170.037 0 0.053 111.17 0.053 222.287 0 333.456-38.334 0-76.669 0-115.003 0zM545.188 905.846c-0.053-111.17-0.053-222.287 0-333.456 56.661 0 113.375 0 170.089 0-18.274 111.17-36.706 222.287-55.033 333.456-38.334 0-76.721 0-115.056 0zM727.723 905.846c18.327-111.17 36.654-222.287 55.033-333.456 48.942 0 97.936 0 146.878 0-32.61 104.028-65.116 208.056-97.831 312.031-3.203 12.235-15.439 20.795-27.832 21.11-25.416 0.945-50.832 0-76.249 0.315zM89.482 504.858c9.872-17.749 24.996-32.978 44.636-39.542 36.024-13.548 78.139 5.671 94.786 39.595-46.474 0.315-92.948 0.368-139.422-0.053zM310.928 504.858c32.768-57.817 126.871-57.817 159.586 0.053-53.195 0.368-106.391 0.368-159.586-0.053zM553.485 504.858c32.768-57.817 126.871-57.764 159.639 0-53.195 0.42-106.443 0.42-159.639 0zM795.149 504.911c9.557-17.119 23.841-32.033 42.588-38.807 36.076-14.756 80.397 3.833 96.519 39.017-46.369-0.105-92.738 0.263-139.106-0.21zM148.296 393.846c0.21-114.951-0.263-229.901 0.21-344.852-0.63-18.642 16.752-34.763 35.289-33.136 218.821-0.158 437.642-0.158 656.41-0.053 18.485-1.575 35.866 14.441 35.289 33.031 0.42 115.003 0 230.006 0.21 345.062-46.369-2.836-93.053 17.014-122.302 53.248-60.337-70.892-181.957-70.42-241.401 1.418-59.392-71.838-181.012-72.363-241.349-1.418-29.25-36.181-75.986-56.084-122.355-53.301zM624.115 338.288c34.343 15.281 75.934 15.491 109.594-1.785 21.688-12.235 19.902-47.839-2.678-58.184-19.272-10.555-38.702 7.247-58.657 3.991-35.184-1.943-63.961-35.919-60.757-70.892 1.523-35.761 36.024-66.061 71.785-61.755 21.425 1.47 39.647 15.281 51.568 32.453-16.542 0.998-37.179-3.256-49.257 11.395-16.857 17.487-6.827 50.832 17.434 55.033 24.629 1.838 49.415 0.788 74.096 0.683 15.491 0.42 29.565-11.973 31.98-27.097 6.302-71.102-55.296-138.844-126.713-139.737-65.378-4.043-127.186 47.997-135.851 112.587-10.24 58.079 23.211 120.097 77.456 143.307z" />
<glyph unicode="&#xe90f;" glyph-name="call" d="M214.309 936.229h581.73c102.156 7.802 218.453-43.886 227.962-157.501v-68.998c-11.459-64.853-67.535-98.499-122.392-123.611 36.328-47.055 68.267-100.693 64.122-162.621-0.731-92.16 8.777-186.27-9.021-277.211-32.183-108.008-149.699-161.402-255.269-160.914h-366.446c-129.219-9.509-278.918 78.019-276.236 220.16 4.632 127.512-32.427 276.968 63.39 380.83-52.907 24.137-105.813 56.564-122.149 116.785v68.998c4.145 111.177 113.615 168.96 214.309 164.084zM126.537 858.453c-57.539-27.063-65.829-105.326-49.981-159.939 36.084-63.147 123.124-60.221 185.295-48.762 53.638 45.349 78.019 131.413 155.307 143.604 62.903 5.364 126.537 5.364 189.684 0 76.8-12.19 101.425-97.524 154.575-143.116 44.617-10.728 92.404-8.777 135.802 5.364 100.693 34.621 63.634 216.99-43.398 214.065-170.667 9.509-341.821 0.975-512.731 4.145-71.436-2.438-145.798 8.046-214.552-15.36zM421.547 731.672c-40.229-33.402-63.39-82.895-103.863-116.053-54.37-35.352-128.731-44.13-165.547-102.888-35.84-54.857-20.724-123.855-24.625-185.539 4.632-73.874-16.823-163.109 41.935-221.379 42.667-47.787 109.958-59.733 171.154-58.027 130.682 1.463 261.364-2.926 392.046 2.194 81.92 2.682 164.328 69.73 162.377 155.794 0.975 86.796 5.364 174.080-3.413 260.389-12.678 70.461-81.189 104.107-141.653 126.781-67.291 24.381-96.792 95.573-149.455 138.971-59.246 5.851-119.71 6.095-178.956-0.244zM400.579 486.156c114.834 59.733 283.794 13.41 327.192-115.078 31.208-88.503-22.674-187.733-105.326-224.061-113.371-58.027-278.674-14.141-324.754 110.933-34.133 88.503 19.017 191.147 102.888 228.206zM447.878 438.613c-76.069-25.6-119.954-127.269-65.585-193.585 71.192-102.644 263.314-72.655 282.819 56.564 13.41 111.421-124.343 180.175-217.234 137.021z" />
<glyph unicode="&#xe910;" glyph-name="decrease" d="M164.436 924.038h174.297c42.152-4.334 78.669-39.551 82.733-81.974 1.95-28.824 0.325-57.756 0.813-86.634 188.058-0.108 376.171 0.108 564.229-0.108 17.771 1.842 32.454-11.053 37.492-27.361v-702.388c-3.901-13.653-14.141-24.002-27.74-28.011h-175.218c-12.082 7.314-12.19 28.336 3.847 29.745 56.185 2.005 112.532-0.108 168.77 0.921 0.488 59.652 0.054 119.304 0.217 178.956-27.686 2.655-65.070-9.969-83.437 17.825-27.957 37.222-55.155 74.931-83.22 111.99-11.161 15.55-28.932 26.223-48.274 26.873-41.123 1.354-82.299-0.163-123.422 0.379-10.619 0.108-22.485 1.192-29.853 9.861-20.155 21.618-35.867 46.974-56.022 68.7-10.999 12.353-27.415 19.017-43.886 19.18-34.458 0.759-68.971-0.163-103.484 0.163 0-23.677 0-47.353 0-71.030 16.091-1.192 35.488 2.817 48.003-9.969 13.274-12.245 13.166-34.079 1.571-47.462-32.996-43.019-65.991-86.146-99.366-128.84-19.667-27.307-64.528-28.119-84.9-1.3-33.537 42.531-66.208 85.821-99.366 128.677-11.54 12.895-13.491 33.808-1.409 46.92 12.082 14.899 32.996 10.89 49.737 11.92 0 33.266 0.488 66.479 0.163 99.691 1.138 12.57-7.531 22.43-13.816 32.291-22.972 33.321-44.644 67.562-67.508 100.937-10.565 15.875-28.119 27.090-47.353 28.011-25.952 1.354-51.904 0.108-77.857 0.433 0.108-208.051-0.271-416.102 0.163-624.152 230.102-0.542 460.15-0.108 690.252-0.217 18.421-0.488 37.167 1.842 55.372-1.788 12.516-6.068 7.098-20.101 1.029-28.715h-749.145c-13.653 3.901-23.785 14.249-27.848 27.794v702.171c4.551 14.358 16.146 27.848 32.345 27.469 50.55 1.138 101.154-0.054 151.758 0.596 8.073-1.029 19.126 1.734 24.381-6.393 8.235-9.536-0.975-25.735-13.491-23.948-54.83-1.084-109.768 0.271-164.599-0.542-0.163-13.924-0.271-27.794-0.325-41.719 27.848-0.542 55.805 1.138 83.654-0.867 26.494-2.221 50.821-17.663 65.774-39.389 19.505-28.228 37.926-57.214 57.214-85.55-0.054 89.83 0 179.661 0 269.491 1.138 26.006-14.033 52.121-38.468 62.036-27.686 12.516-62.74 0.325-77.64-25.898-14.954-24.977-5.635-55.209-9.969-82.408-3.034-15.116-28.661-12.732-28.661 2.763-1.354 33.104-4.93 69.892 14.683 98.824 14.791 23.406 40.581 38.251 67.779 42.044zM243.864 893.752c14.683-19.342 24.327-42.694 23.297-67.346 0.163-146.177-0.163-292.409 0.108-438.64-0.488-8.886 1.463-21.13-8.29-25.952-16.796-3.251-34.133-0.975-51.2-1.68 26.602-41.935 60.14-79.103 89.234-119.304 9.156-10.728 16.958-27.252 33.429-26.602 14.52 0.542 21.78 14.845 30.070 24.652 29.907 40.635 62.957 79.103 91.239 120.875-17.012 0.813-34.188-0.542-51.092 1.625-7.856 3.901-9.048 12.786-8.615 20.588 0.108 148.236 0.108 296.527 0.054 444.763 2.005 32.345-23.568 64.149-56.347 66.316-30.612 1.463-61.277-0.163-91.889 0.704zM422.278 724.927c0-77.423-0.054-154.9 0.054-232.323 39.768-0.921 79.753 2.005 119.467-1.517 51.525-8.398 73.685-61.386 105.542-96.169 42.531-0.433 85.062 0.163 127.539-0.271 28.499 0.325 56.618-13.057 73.956-35.705 30.503-40.093 59.977-80.945 90.318-121.146 18.204-0.217 36.463-0.163 54.722-0.108-0.217 162.323 0.271 324.646-0.271 486.969-190.442 0.65-380.885 0.108-571.327 0.271zM505.065 548.897c16.85 5.255 35.542 2.601 53.042 1.788 13.057-4.009 13.003-25.194-0.325-28.715-16.091-1.68-32.4-1.625-48.491-0.108-11.974 2.817-14.249 20.534-4.226 27.036zM759.223 451.969c17.446 2.492 35.434 2.33 52.88 0.054 10.782-5.201 10.89-22.16 0.271-27.578-17.663-2.709-35.975-2.763-53.584 0.108-10.24 5.743-10.24 22.105 0.433 27.415z" />
<glyph unicode="&#xe911;" glyph-name="email" d="M118.329 844.8h784.498c57.458-5.689 107.093-46.222 121.173-102.684v-557.796c-10.24-58.453-61.013-99.982-118.471-107.52h-783.787c-58.453 5.547-109.653 47.218-121.742 105.529v559.644c13.796 55.751 62.009 95.431 118.329 102.827zM82.916 741.973c141.938-94.151 286.293-184.604 429.084-277.333 142.791 92.729 287.289 183.182 429.227 277.476-18.204 12.373-36.551 28.444-60.16 26.027-246.044 0.427-492.089 0.427-737.991 0-23.467 2.133-42.382-13.227-60.16-26.169zM83.627 645.973c0.427-147.2-0.711-294.4 0.284-441.458-2.702-32.142 28.871-54.044 58.453-50.916 246.471-0.569 492.942-0.569 739.413 0 29.44-3.129 60.871 18.631 58.311 50.631 0.996 147.2-0.142 294.542 0.284 441.742-130.276-83.769-260.409-167.68-390.684-251.449-19.058-14.222-45.369-21.76-65.707-5.547-133.973 84.764-266.809 171.52-400.356 256.996z" />
<glyph unicode="&#xe912;" glyph-name="envelope" d="M0 870.4h1024v-813.511c-1.593-1.365-4.551-4.324-6.144-5.689h-1010.119c-1.82 0.683-5.689 2.048-7.737 2.731v816.469zM69.632 792.121c0-219.819 0-439.865 0-659.684 294.457-0.228 588.914-0.228 883.371-0.228-0.228 220.046 0 440.092-0.228 659.911-294.229 0-588.686 0-883.143 0zM157.924 617.131c-34.588 21.39 0.228 56.206 16.839 76.004 113.095-74.183 224.825-150.414 337.010-225.963 111.275 72.363 217.771 152.462 332.231 219.591 42.325-7.054 50.745-60.757 10.695-78.962-114.688-78.052-227.783-159.744-348.16-229.604-114.688 81.92-235.975 154.51-348.615 238.933z" />
<glyph unicode="&#xe913;" glyph-name="facebook-logo" d="M360.296 770.908c46.143 110.744 158.657 189.63 278.503 194.813 63.083 2.276 126.546 4.678 189.377-1.264 51.579-4.678 89.126-48.545 101.009-96.585v-38.179c-9.987-41.466-37.294-80.403-79.518-93.677-73.829-18.71-152.083 6.574-225.406-14.918-59.797-26.548-46.902-100.757-47.787-153.6 77.622-7.206 168.012 21.239 235.394-28.318 69.404-52.085 49.809-172.942-31.984-201.26-66.118-17.193-135.522-4.93-203.030-8.344-1.391-89.252 2.528-178.631-1.264-267.883-1.011-59.67-55.878-109.227-114.41-110.364-61.819-4.172-123.006 46.522-124.65 109.606-4.425 89.632 0 179.263-1.517 268.895-52.464 0.506-105.813-5.183-157.519 5.562-42.351 11.757-69.784 49.936-82.679 90.011v42.603c10.746 38.305 34.26 74.588 72.691 89.505 53.855 16.94 111.629 8.723 167.253 9.734-0.253 68.393-3.287 139.947 25.537 203.662zM629.318 906.050c-85.207-8.47-163.966-61.946-204.041-137.545-35.018-60.681-31.099-132.741-29.709-200.249-2.023-18.584 4.172-45.005-15.55-56.004-63.336-13.527-130.086 6.827-192.537-10.619-43.236-19.089-43.615-86.977-0.632-106.572 62.704-19.342 130.212 1.896 193.928-11.631 2.528-2.528 7.712-7.838 10.24-10.493 12.389-106.698-3.793-215.672 7.585-322.623 15.676-52.464 99.745-52.464 115.042 0.506 11.125 105.94-2.402 213.397 6.195 319.589 2.781 3.413 8.47 10.366 11.251 13.78 75.978 13.653 155.37-7.332 230.59 10.493 48.419 20.733 41.086 99.745-10.493 110.744-67.255 7.838-135.143-1.138-202.524 3.54-13.021-0.759-29.709 7.712-29.456 22.503-4.045 41.845-2.528 84.069-0.885 126.040 1.517 59.923 49.304 113.525 107.33 126.167 68.393 12.389 138.935-4.551 207.076 9.102 51.959 18.331 46.396 102.653-8.091 112.64-64.853 5.436-130.465 3.287-195.319 0.632z" />
<glyph unicode="&#xe914;" glyph-name="global" d="M263.558 903.558c196.754 109.958 463.726 68.998 615.863-98.011 140.434-144.335 177.25-376.198 89.234-557.105-93.379-204.8-333.044-326.217-553.448-281.6-215.771 34.865-387.657 223.086-415.208 438.126v115.078c24.137 159.451 119.467 307.931 263.558 383.512zM113.371 629.516c26.331-79.97 53.15-169.691 130.682-215.284 64.61-48.762 147.749-17.067 221.135-22.187 54.857-22.43 9.021-88.99 12.19-130.926 34.865-11.459 70.705-18.286 106.301-26.575 35.109-45.836 53.638-142.385 121.417-136.777 10.484 52.907 6.339 110.202 34.621 158.232 11.215 31.695 48.274 71.192 15.36 102.644-53.882 78.019-158.476 38.278-234.789 63.878-29.745 25.844-52.907 57.783-78.019 87.771-26.331-14.872-52.907-29.013-79.97-42.423-38.034 24.625-42.91 73.143-15.116 107.764 51.688 38.278 116.541 1.219 172.373-6.095 3.413 31.695 6.827 63.39 9.996 95.086-16.823 7.558-50.469 22.918-67.291 30.476 17.31 44.13 35.109 88.015 51.931 132.145-58.514 6.339-117.029 12.19-175.055 22.187-98.987-44.861-174.080-125.806-225.768-219.916z" />
<glyph unicode="&#xe915;" glyph-name="google" d="M488.82 972.8h45.188c117.276-5.298 232.209-51.76 319.274-130.675 12.278-12.125 30.312-23.231 30.363-42.59 0.764-11.463-6.215-21.193-14.010-28.784-44.322-44.17-88.594-88.441-132.763-132.763-7.591-7.795-17.27-14.825-28.682-14.163-14.367-0.509-24.25 10.953-34.133 19.512-51.913 47.43-125.376 69.744-194.968 59.861-68.318-8.864-131.592-48.704-169.902-105.864-35.611-52.117-49.366-118.397-37.801-180.448 12.583-71.527 59.402-135.82 123.135-170.514 59.351-33.063 132.916-39.432 197.005-16.659 50.996 17.525 95.268 52.576 125.274 97.255-57.212 0.408-114.423-0.306-171.584 0.306-18.391-0.662-34.235 16.201-33.318 34.388-0.611 61.134 0.102 122.32-0.357 183.454 0.357 12.227-1.070 26.084 7.234 36.222 7.030 9.934 19.512 13.755 31.28 13.195 141.067 0.051 282.135-0.102 423.253 0.051 15.64 1.528 33.165-6.164 37.954-22.161 8.1-29.956 10.597-61.185 12.736-92.058v-38.464c-4.84-125.325-56.549-248.46-144.837-337.92-89.562-93.026-215.346-149.066-344.186-155.179h-44.73c-128.025 5.655-253.045 60.829-342.658 152.581-88.645 88.798-141.628 211.066-147.588 336.29v44.781c5.553 128.076 60.778 253.198 152.581 342.811 88.798 88.543 211.066 141.526 336.239 147.538zM427.023 897.554c-113.71-21.754-217.231-90.224-282.39-185.848 38.566-22.263 77.131-44.526 115.697-66.738 50.385 68.572 129.299 115.646 214.072 125.325 82.48 10.546 168.323-14.265 232.871-66.535 31.535 31.382 62.866 62.866 94.402 94.249-100.974 88.339-243.162 126.090-374.652 99.547zM110.959 268.125c38.566 22.161 77.131 44.475 115.646 66.738-35.050 79.169-35.050 172.704 0 251.873-38.515 22.314-77.080 44.577-115.646 66.789-58.383-119.772-58.383-265.68 0-385.401zM578.891 527.284c0-44.322 0-88.645 0-132.967 63.478-0.153 127.007 0.102 190.484-0.102 22.161 2.14 41.571-21.346 34.388-42.59-20.582-56.855-59.097-106.628-107.596-142.494 22.161-38.515 44.424-77.029 66.636-115.493 58.842 40.349 108.106 94.656 141.73 157.574 44.985 83.754 61.695 182.18 47.583 276.123-124.408-0.051-248.817 0.051-373.225-0.051zM144.634 209.895c63.274-92.771 162.566-160.172 272.404-183.76 96.083-21.346 198.992-9.068 287.535 33.828-22.161 38.464-44.373 76.978-66.636 115.442-65.77-28.937-141.526-34.388-210.608-14.672-66.636 18.493-125.937 60.472-166.999 115.951-38.566-22.263-77.131-44.526-115.697-66.789z" />
<glyph unicode="&#xe916;" glyph-name="google-plus" d="M440.785 920.436h65.862c74.24-9.891 152.785-24.785 213.644-71.331 53.411-45.149 36.073-141.033-29.091-165.702-57.833-27.345-112.524 18.735-168.495 28.16-102.284 21.644-214.924-25.018-271.593-112.989-53.295-78.545-54.924-188.044-3.375-267.869 55.622-91.462 170.589-139.869 275.084-118.691 84.48 13.964 153.716 73.891 193.396 147.898-67.491 6.516-152.553-20.131-204.335 36.655-48.524 51.2-20.015 146.153 48.756 161.745 68.305 12.451 138.24 3.025 207.244 6.167 49.92-1.396 109.847 7.913 148.364-31.535 37.353-35.258 31.185-91.578 24.669-137.658-19.898-136.727-107.636-259.84-227.258-327.796-136.378-79.476-312.204-85.062-453.585-15.011-143.593 68.305-245.993 213.993-260.073 372.713v70.516c9.425 102.982 53.062 202.705 125.207 277.178 81.687 86.924 197.236 138.24 315.578 147.549zM181.062 750.545c-123.462-112.989-161.629-307.084-87.040-457.542 81.804-178.618 300.335-274.269 488.262-220.858 175.244 42.938 313.484 212.364 306.735 394.705-1.28 31.418-34.909 45.847-62.371 42.705-81.222-1.047-162.676 2.444-243.665-1.745-48.291-3.956-52.829-81.338-5.12-90.647 70.633-7.564 142.080-0.349 213.062-3.142-20.945-90.531-75.287-174.778-158.487-219.229-131.258-76.916-314.298-44.451-409.251 74.938-82.967 97.396-92.276 248.32-21.527 354.909 77.847 125.091 247.971 180.364 384.582 125.44 27.578-7.913 57.135-31.418 85.876-15.127 30.72 14.662 33.047 63.302 2.909 79.709-155.345 88.436-365.964 60.16-493.964-64.116zM868.655 805.12c4.655 28.742-4.305 77.149 37.469 78.778 38.051-5.004 30.72-50.153 35.607-77.498 29.556-2.56 62.604-1.862 82.269-28.276v-9.658c-13.149-35.258-51.549-31.535-82.153-35.142-3.956-22.691-1.28-48.175-13.964-68.305-15.244-13.382-36.305-9.775-50.036 3.724-6.4 21.062-6.982 43.287-9.425 65.047-24.902 3.956-53.644-0.698-74.822 15.709-5.935 13.033-6.167 26.065-0.931 39.331 20.713 18.269 50.735 12.335 75.985 16.291z" />
<glyph unicode="&#xe917;" glyph-name="help" d="M481.007 972.8h60.894c251.631-10.65 470.767-229.649 482.099-481.143v-61.577c-11.196-251.631-230.468-470.63-482.099-481.28h-59.938c-251.767 10.786-471.040 230.059-481.963 481.826v61.167c11.332 251.085 229.922 469.675 481.007 481.007zM306.517 614.673c33.587-0.273 67.038-0.273 100.625-0.273 3.959 46.285 35.362 91.341 82.876 100.215 59.802 15.428 124.109-34.543 124.655-95.983 6.007-63.898-56.934-97.621-91.341-141.585-48.196-41.916-65.399-106.906-63.215-168.755 33.997-0.41 68.13-0.273 102.127 0.137 1.502 41.643 7.236 87.245 37.82 118.511 43.145 44.646 97.894 85.197 111.411 149.641 28.535 117.419-72.636 241.254-192.375 241.937-112.094 6.827-212.173-92.57-212.582-203.844zM460.8 203.844c0-33.724 0-67.584 0-101.308 34.133-0.137 68.267-0.137 102.4-0.137 0 33.86 0 67.721 0 101.444-34.133 0.137-68.267 0.137-102.4 0z" />
<glyph unicode="&#xe918;" glyph-name="instagram" d="M256.253 972.8h508.587c127.305-13.148 229.705-124.903 240.198-250.943v-520.723c-9.608-125.788-110.997-237.163-237.416-252.334h-508.46c-127.305 13.148-229.705 124.903-240.198 250.943v520.597c9.481 125.914 110.87 237.163 237.29 252.46zM225.28 879.123c-75.852-26.295-127.305-104.423-126.167-184.067-0.253-159.795-1.264-319.589 0.506-479.384 2.023-96.964 86.977-185.205 185.458-183.561 151.577-0.632 303.028-0.632 454.605 0.126 98.355-1.391 182.803 86.977 184.699 183.814 1.77 159.668 0.759 319.463 0.506 479.257 2.276 95.953-75.599 188.745-173.321 193.296-134.511 3.16-269.274 0-403.911 1.391-40.834-0.379-83.184 2.908-122.374-10.872zM742.969 757.128c25.79 14.918 60.176-7.964 58.532-37.041 2.528-29.456-32.996-53.349-58.785-37.673-29.203 13.653-28.697 61.061 0.253 74.714zM466.362 687.597c129.833 33.628 264.597-76.863 268.516-208.213 13.78-129.96-101.894-258.276-234.761-246.139-132.741 5.183-231.727 145.636-203.662 272.94 14.791 86.598 83.184 162.702 169.908 181.412zM466.236 600.62c-42.73-15.802-75.725-53.728-87.735-97.47-26.042-82.299 35.145-179.39 122.248-186.216 93.045-11.378 173.321 86.218 151.072 175.597-13.148 82.426-106.951 139.947-185.584 108.089z" />
<glyph unicode="&#xe919;" glyph-name="left-arrow" d="M290.535 914.773c165.245 91.758 384.1 66.259 525.252-58.629 114.447-95.975 173.879-244.555 178.096-391.931v-1.004c-6.425-142.958-63.649-286.318-173.678-380.486-138.943-126.494-356.392-154.604-522.441-66.46-148.58 74.491-244.154 228.693-267.645 390.726v105.813c15.862 165.446 111.837 323.865 260.417 401.97zM398.758 900.317c-186.729-50.999-318.845-237.929-317.038-429.478-3.815-181.911 111.435-362.616 284.11-425.261 161.23-63.649 356.392-8.634 465.418 124.687 140.348 161.23 143.36 421.245 7.027 585.688-100.995 129.506-281.098 190.946-439.517 144.364zM562.999 703.347c20.48 30.72 64.050-16.464 35.539-36.744-58.83-66.259-122.478-128.502-182.513-193.757 66.46-75.294 144.163-140.75 203.997-221.465-7.429-8.031-21.885-24.295-29.114-32.326-87.542 77.904-165.045 166.45-245.559 251.382 66.46 82.924 144.163 156.411 217.65 232.91z" />
<glyph unicode="&#xe91a;" glyph-name="pie-chart" d="M198.569 850.895h654.71c15.983-7.206 10.348-33.212-7.694-30.341-209.405-0.325-418.756-0.054-628.162-0.163-0.65-31.424 1.192-62.903-0.759-94.273-1.3-16.633-16.796-30.124-33.375-29.799-51.037-0.596-102.075 0.054-153.112-0.217 0-198.136-0.163-396.272 0.108-594.408 85.388-1.517 170.829 0.488 256.217-0.921 16.254-0.759 16.146-21.618 5.689-30.070h-263.802c-14.033 3.413-24.706 14.141-28.39 28.065v612.775c4.172 12.786 16.362 19.396 26.819 26.386 57.593 37.113 113.669 76.61 171.75 112.965zM65.774 726.661c40.147-0.054 80.295-0.108 120.442 0.054 1.409 26.765 0.433 53.584 0.65 80.403-40.364-26.819-80.728-53.692-121.092-80.457zM900.145 850.895h95.519c13.978-3.413 24.652-14.141 28.336-28.065v-723.572c-3.359-14.087-14.087-24.814-27.957-28.553h-662.078c-9.373 7.368-12.732 23.352 0.054 29.203 18.53 2.872 37.384 0.759 56.076 1.246 201.17 0.325 402.34-0.488 603.564 0.433 0.379 239.421 0.217 478.896 0.054 718.317-30.612 1.842-61.44-1.354-91.997 1.571-13.545 4.822-10.132 21.509-1.571 29.42zM290.892 640.894c0.975 19.613-6.447 49.629 17.988 57.593 63.011 2.005 125.697-23.677 173.051-64.745 54.613-47.245 88.638-117.299 91.51-189.467 1.517-12.624-7.639-26.169-20.697-27.361-12.461-1.084-25.031-0.433-37.492-0.433-4.118-45.999-22.268-90.968-53.638-125.156-39.497-44.482-98.77-70.163-158.205-69.188-59.056 0.271-117.029 27.578-155.388 72.384-35.65 40.797-54.451 95.953-50.604 150.078 3.251 58.081 32.129 114.103 77.586 150.349 32.779 26.819 73.901 42.152 115.891 45.945zM321.395 446.93c73.901 0.108 147.857-0.271 221.812 0.163-3.901 50.279-23.406 99.258-56.347 137.563-40.906 48.816-101.967 79.482-165.465 83.979-0.108-73.901-0.054-147.803 0-221.704zM134.962 483.23c-17.771-56.835-3.793-121.363 34.296-166.82 40.635 40.201 80.62 81.053 121.417 120.984 0.433 57.593 0.163 115.132 0.163 172.726-71.301-6.068-135.883-58.027-155.876-126.889zM311.914 416.047c-39.876-40.96-80.836-80.728-120.875-121.471 42.64-35.163 101.316-50.116 155.334-37.113 74.118 16.091 132.253 83.491 138.375 158.91-57.593-0.108-115.241 0.542-172.834-0.325zM646.854 657.852c13.328 4.714 42.531 8.29 43.29-12.732-0.108-18.475-22.43-15.604-34.892-14.954-14.303-0.921-20.317 20.426-8.398 27.686zM727.257 659.694c60.844 1.896 121.905 0.813 182.749 0.542 17.229-0.108 17.338-29.636 0.054-29.799-59.435-0.596-118.925-0.542-178.414 0-15.333-0.054-18.421 24.002-4.389 29.257zM726.877 601.18c61.007 2.384 122.392 1.029 183.507 0.704 17.283-0.596 16.525-29.799-0.704-29.907-59.164-0.813-118.437-0.704-177.656-0.054-15.279 0-19.126 23.622-5.147 29.257zM646.366 502.139c9.156 5.635 21.13 2.709 31.424 2.601 14.249-1.029 16.904-22.918 4.334-28.824-10.403-2.113-21.13-1.842-31.587-0.542-11.215 3.468-13.653 20.047-4.172 26.765zM723.356 501.597c6.231 6.014 16.417 2.492 24.273 3.684 52.446-0.379 104.892 0.054 157.393-0.163 12.353 2.709 23.189-11.811 16.362-22.756-3.847-8.669-14.033-7.477-21.78-7.748-56.022 0.488-112.098-0.596-168.12 0.488-13.003-0.379-18.204 19.071-8.127 26.494zM722.597 442.704c20.534 9.048 45.836 2.33 68.212 4.063 17.5 2.438 21.943-25.627 5.418-29.745-21.889-1.084-43.886-0.975-65.72-0.108-11.865 0.65-16.796 18.204-7.91 25.79zM652.434 349.46c13.112 1.029 34.404 4.822 37.98-12.786 1.517-19.938-21.889-18.638-35.379-17.283-17.283-0.921-19.83 27.794-2.601 30.070zM728.449 349.135c55.101 2.33 110.364 0.163 165.52 1.029 9.373-0.596 22.593 2.167 27.632-8.452 6.339-10.944-4.334-24.923-16.525-22.376-57.918 0.108-115.945-0.65-173.863 0.379-15.766 0.271-17.717 25.627-2.763 29.42zM728.232 290.838c37.167 1.734 74.389 0.054 111.556 0.759 8.615 0.054 21.455 0.975 24.11-9.915 4.389-8.669-3.088-21.022-13.057-20.426-39.714-0.379-79.428-0.542-119.142 0.054-15.766-0.163-18.584 25.465-3.468 29.528z" />
<glyph unicode="&#xe91b;" glyph-name="telegram" d="M880.868 882.688c32.54 12.516 64.057 27.989 98.19 36.068 28.103 2.731 48.924-26.624 40.505-52.679-51.541-273.749-103.993-547.499-156.558-821.020-1.138-29.924-38.002-50.517-62.805-31.516-86.926 56.092-171.349 116.053-257.593 173.397-47.218-32.54-92.16-68.494-140.288-99.669-22.528-16.27-56.889-0.683-60.871 26.51-24.348 85.902-45.17 172.828-69.177 258.958-77.141 29.241-154.169 58.709-231.31 87.95-16.384 5.348-30.379 15.474-40.96 28.9v26.965c11.947 26.283 41.984 32.199 65.991 42.667 271.815 107.292 543.175 215.836 814.876 323.47zM153.259 505.856c59.278-25.031 121.515-43.349 179.428-71.225 22.983-25.486 22.187-63.716 32.54-95.232 8.533 10.126 17.067 20.139 26.283 29.582 136.306 131.3 273.18 262.030 409.259 393.557-216.178-84.764-431.559-171.463-647.509-256.683zM472.519 333.141c106.837-72.476 214.016-144.384 320.626-217.429 41.984 214.585 82.148 429.397 123.335 644.096-148.139-142.108-296.164-284.217-443.961-426.667zM376.491 299.918c9.557-36.864 19.228-73.728 29.241-110.478 21.618 15.36 43.122 30.834 64.512 46.535-31.289 21.276-62.805 42.325-93.753 63.943z" />
<glyph unicode="&#xe91c;" glyph-name="twitter" d="M246.004 972.8h532.846c127.756-9.752 235.764-118.248 245.15-246.004v-532.846c-9.752-126.659-116.053-233.448-242.225-245.15h-536.625c-126.659 9.874-233.448 116.175-245.15 242.347v533.943c8.29 128.731 117.394 238.324 246.004 247.71zM237.227 903.314c-95.451-12.312-171.52-101.669-170.423-197.608-1.585-146.773 0.366-293.425-0.853-440.198 0.122-44.983-0.731-92.282 19.87-133.73 31.33-69.73 105.326-116.419 181.638-116.175 146.53-1.585 293.059 0.366 439.467-0.853 45.349 0 92.77-0.731 134.339 19.992 69.608 31.33 116.053 105.326 115.931 181.516 1.463 154.819-0.122 309.638 0.731 464.457 1.097 49.371-8.168 100.571-38.156 140.922-41.326 60.465-116.297 89.234-187.855 85.090-164.815-2.56-330.118 4.145-494.69-3.413zM536.015 706.316c58.027 43.52 140.19 35.474 196.389-7.070 36.571 1.219 94.232 40.35 115.444-6.339 4.632-66.438-60.952-107.276-65.707-170.667-9.265-92.891-55.954-180.907-125.562-242.834-125.684-111.787-327.924-124.952-467.139-30.964-24.259 14.75-12.069 60.221 18.042 56.808 41.204 1.097 82.408 4.632 121.783 17.432-61.562 49.981-124.83 113.981-127.756 198.339-0.731 59.855-0.244 122.88 23.528 178.712 21.333 29.745 54.248 3.535 70.827-16.579 44.983-49.981 107.886-77.775 172.008-94.11 10.24 44.861 27.794 91.185 68.145 117.272zM556.983 634.392c-33.646-29.989 1.219-86.918-34.499-112.396-91.672-8.046-180.175 34.865-251.733 89.112-0.975-48.152-11.337-101.181 15.482-144.701 28.282-52.541 80.457-83.505 127.269-117.15 17.067-9.63 18.164-36.693 2.804-48.274-21.699-19.139-48.030-31.817-72.655-46.69 55.101-1.707 111.787-3.291 164.571 15.604 84.846 27.429 153.112 96.061 186.149 178.347 28.648 60.465 12.556 136.411 63.878 186.88-16.579-1.585-33.036-2.804-49.493-4.023-39.985 41.448-113.859 54.248-151.771 3.291z" />
<glyph unicode="&#xe91d;" glyph-name="worldwide" d="M457.173 972.8h15.68c31.040-4.213 54.773-29.547 61.76-59.307 95.147-4.693 187.84-41.707 261.013-102.507 37.973 26.613 88.853 34.080 132.053 16.373 48.96-18.933 83.253-67.093 88.32-118.933v-27.040c-5.12-45.28-32.053-86.507-71.147-109.707 22.4-92.747 16.48-192.373-19.147-281.067-40.853-103.253-121.173-190.507-221.28-238.933-52.64-25.813-110.507-40.053-168.907-43.68-26.4-32.267-64.64-53.653-105.92-59.2h-30.773c-55.093 5.707-105.707 41.6-128.053 92.373-7.787 15.040-9.333 32.16-14.933 47.893-63.733 47.040-116.64 109.387-149.067 181.92-24.64 53.973-37.867 112.747-40.747 171.893-33.707 35.787-54.613 83.040-58.027 132.16v27.627c4.16 61.28 35.733 120.213 85.707 156.213 34.56 25.813 77.493 38.987 120.427 39.733 51.147 45.867 112.427 80.107 178.453 99.2-0.8 36.747 27.147 71.84 64.587 74.987zM447.467 938.987c-17.387-7.68-27.84-28.267-23.253-46.827 4.16-21.12 26.987-36.693 48.213-31.36 22.987 4.427 38.027 30.88 30.24 52.96-6.453 22.4-33.92 35.627-55.2 25.227zM561.28 880.96c53.44-49.067 91.253-112.747 117.333-179.947 19.68 0.213 39.36 0.107 59.040 0.107 1.867 32.533 14.133 64.16 35.467 88.853-60.053 49.707-134.613 81.067-211.84 90.987zM255.787 794.133c39.467-8.8 75.947-29.067 104.48-57.707 10.72 22.72 22.453 44.96 36.267 65.973 3.467 5.653 8.96 12.213 16.533 10.453 12.267-0.32 17.707-16.747 9.653-25.333-15.68-24.48-29.44-50.133-41.013-76.8 48.32-68.16 50.773-164.48 5.707-234.933 71.893 0.107 143.787-0.053 215.68 0.053 2.453 43.2 37.173 80.96 80.267 86.187-5.547 36.907-14.187 73.28-25.92 108.747-73.547 0.427-147.147-0.64-220.693 0.48-17.813 1.6-15.040 31.52 2.827 29.707 68.853 0.427 137.707 0.053 206.613 0.16-26.4 63.733-63.84 125.227-118.933 168-9.227-17.813-25.387-32.107-44.96-37.227-31.733-9.44-66.56 7.68-81.6 36.373-52.64-14.667-101.867-40.48-144.907-74.133zM853.12 803.947c-41.813-9.173-75.787-45.12-83.307-87.2-8.48-41.493 9.387-86.827 43.947-111.36 29.813-22.133 71.467-26.933 105.493-11.893 34.88 14.667 60.587 48.48 65.76 85.92 5.867 37.387-9.12 77.173-38.187 101.44-25.28 21.867-61.12 30.773-93.707 23.093zM174.56 763.253c-30.827-7.253-59.573-22.987-82.293-45.067-61.6-57.92-72.213-160.16-24.053-229.6 45.013-70.667 143.893-99.467 219.307-62.027 82.293 36.587 124.107 140.427 91.52 224.16-27.627 81.653-120.427 134.080-204.48 112.533zM689.013 670.773c11.253-36.213 19.52-73.227 24.907-110.72 38.293-9.653 66.987-44.907 69.44-84.213 48.213-0.053 96.48-0.053 144.693 0-1.12 28.32-4.96 56.427-11.147 84.053-34.987-9.653-73.76-6.56-105.653 11.307-37.44 20.053-63.573 58.027-71.52 99.573-16.907 0.053-33.813 0.053-50.72 0zM671.413 527.467c-24.373-9.44-40.533-36-37.813-62.027 2.027-31.040 31.040-57.493 62.347-55.36 36.747 0.64 65.227 40.053 55.413 75.2-7.2 34.187-47.467 56.427-79.947 42.187zM334.507 418.987c3.2-54.187 12.8-108 29.227-159.733 69.28 23.893 151.413-8.693 185.6-73.333 25.067-44.16 26.4-99.787 5.6-145.867 121.973 12.053 235.947 81.92 302.88 184.373-59.307 0.107-118.613 0-177.867 0.053-16.427-42.613-36.32-84.32-63.627-121.013-6.72-9.493-23.093-5.28-25.44 5.707-2.773 6.773 2.347 12.8 5.6 18.133 21.067 30.080 37.387 63.2 51.2 97.12-28.373 0.053-56.747 0.053-85.12-0.053-7.36-0.053-16.96-0.587-20.747 7.253-7.147 10.56 3.307 25.387 15.52 23.093 33.76 0.32 67.52-0.053 101.28 0.107 13.28 40.48 22.133 82.347 27.413 124.587-37.12 3.52-69.013 30.88-79.627 66.347-80.64 0.107-161.227-0.053-241.867 0.053-9.493-9.493-19.52-18.4-30.027-26.827zM716.48 382.293c-4.96-43.147-13.6-85.92-26.293-127.467 61.973-0.107 123.893 0.053 185.813-0.107 32 58.347 49.547 124.267 52 190.72-49.227 0.16-98.507-0.213-147.787 0.16-9.813-29.867-33.333-54.347-63.733-63.307zM98.027 415.573c6.293-56.213 23.467-111.093 50.613-160.747 61.653-0.053 123.36 0 185.013 0-14.507 47.627-24 96.8-27.84 146.453-65.333-33.12-147.573-27.467-207.787 14.293zM384.213 233.173c-38.027-8.907-70.827-36.533-86.56-72.213-15.573-34.080-15.147-74.88 1.013-108.64 17.12-36.8 52.693-64.64 92.8-71.36 34.4-6.24 71.147 3.093 98.507 24.8 31.413 24.213 50.293 63.573 49.653 103.253-0.053 39.52-19.573 78.347-51.2 102.027-29.173 22.4-68.48 30.827-104.213 22.133zM167.040 224.427c24.64-37.173 55.253-70.133 89.973-98.080 4.8 37.173 22.347 72.16 49.227 98.293-46.4-0.427-92.8 0-139.2-0.213zM820.533 708.853c17.173 11.627 35.253-16.373 17.12-26.4-16.96-11.093-34.613 16.053-17.12 26.4zM872.853 710.4c11.733 4.267 25.067-7.68 20.267-19.84-4-13.227-25.76-13.707-29.92-0.427-3.84 7.84 1.44 18.027 9.653 20.267zM916.48 709.12c11.68 7.2 28.907-4.747 23.413-18.187-2.773-10.827-18.24-13.973-25.92-6.613-8 6.347-6.24 20 2.507 24.8zM137.707 630.133c7.2 5.12 16.8 2.187 25.013 3.093 39.147-0.373 78.347 0.213 117.547-0.213 12.747 1.6 20.373-15.573 12.107-24.64-5.493-7.467-15.52-5.013-23.36-5.653-40.747 0.427-81.547-0.48-122.293 0.373-14.027-1.173-19.893 19.307-9.013 27.040zM164.213 571.68c7.147 5.333 16.747 2.773 25.013 3.573 23.040-0.693 46.187 0.907 69.173-0.853 13.867-3.52 13.867-25.44 0.16-29.12-28.373-1.013-56.8-0.427-85.173-0.32-13.76-1.28-19.733 18.987-9.173 26.72zM367.84 122.187c29.067 1.28 58.293 0.693 87.36 0.32 16.373-0.533 17.013-27.893 0.693-29.493-28.267-0.96-56.693-0.907-84.96-0.053-15.467 0.373-17.813 25.173-3.093 29.227z" />
<glyph unicode="&#xe91e;" glyph-name="house" horiz-adv-x="1039" d="M97.719 746.423c149.065 206.702 456.704 265.655 675.694 138.971 210.066-111.323 313.344-383.707 226.011-605.769-78.555-224.841-330.021-363.227-562.615-324.169-233.179 28.526-429.787 235.52-436.809 472.064v42.423c4.242 99.182 38.034 197.047 97.719 276.48zM254.976 559.616c-16.091-11.703-36.571-20.041-46.080-38.912 7.022-34.67 46.958-21.358 71.534-25.307 4.242-102.107-2.633-204.654 3.365-306.615 16.677-19.163 46.080-6.875 68.169-10.679 131.218 2.341 262.583-3.803 393.509 3.218 7.461 104.302 1.024 209.042 3.511 313.49 22.967 1.609 48.128-1.609 68.608 11.118 8.777 31.451-26.331 40.229-45.495 55.442-86.747 54.126-170.423 113.518-258.779 165.010-86.455-54.857-171.886-111.616-258.341-166.766zM372.882 524.8c45.056 34.231 94.062 62.903 140.873 94.647 48.274-28.965 94.793-60.562 141.751-91.721 0.146-86.016 0.146-171.886 0-257.902-28.965-1.317-58.222-4.389-87.186-0.878-20.334 38.619 6.437 91.575-14.336 131.657-26.331 3.511-68.169 17.115-84.407-11.118-3.072-39.936-1.17-80.018-1.463-119.954-31.305-2.341-62.757-2.194-94.062 0.585-0.731 84.846 1.17 169.838-1.17 254.683z" />
<glyph unicode="&#xe91f;" glyph-name="search2" d="M621.668 306.332c-44.476-31.692-98.895-50.332-157.668-50.332-150.221 0-272 121.779-272 272s121.779 272 272 272c150.221 0 272-121.779 272-272 0-75.111-30.445-143.111-79.667-192.333l191.916-191.916c8.802-8.802 8.588-22.915-0.249-31.751-8.898-8.898-23.052-8.948-31.751-0.249l-194.581 194.581zM464 288c132.548 0 240 107.452 240 240s-107.452 240-240 240c-132.548 0-240-107.452-240-240s107.452-240 240-240v0z" />
<glyph unicode="&#xe920;" glyph-name="pin" horiz-adv-x="853" d="M162.702 884.053c168.581 128.569 429.89 109.985 576.474-44.184 122.311-119.846 149.049-323.698 57.268-469.333-42.856-79.265-119.846-127.81-194.56-173.321-65.233-74.714-95.194-175.028-163.84-247.656-9.102 2.276-26.927 7.016-35.84 9.292-63.147 75.852-91.781 177.683-163.271 245.76-127.052 63.147-226.039 184.699-238.933 329.007v63.716c9.671 113.399 70.542 220.16 162.702 286.72zM148.48 766.483c-85.333-101.452-95.004-257.707-21.049-368.071 40.201-69.215 111.881-107.33 179.579-144.308 45.89-59.354 77.559-128.379 118.898-190.957 56.889 77.559 81.351 191.147 180.717 226.228 90.074 48.166 153.979 142.033 165.167 243.674 17.446 135.016-65.801 270.222-187.354 326.732-143.929 72.818-335.265 33.944-435.959-93.298zM369.778 713.007c109.416 45.511 248.225-61.061 211.816-179.959-29.961-128.19-222.815-153.979-291.65-44.942-57.268 77.938-11.947 198.542 79.834 224.901zM387.793 640.19c-51.010-20.67-61.819-96.711-16.498-129.327 45.321-40.012 127.052-13.084 136.723 47.218 12.136 63.147-65.991 113.019-120.225 82.11z" />
<glyph unicode="&#xe921;" glyph-name="check-circle" d="M471.799 938.667h77.179c246.329-14.791 457.956-225.849 475.022-471.799v-77.369c-14.981-246.139-225.849-457.576-471.419-474.833h-80.403c-245.191 16.498-455.111 226.797-472.178 471.799v77.179c14.981 246.329 225.849 458.145 471.799 475.022zM386.465 834.94c-194.37-56.51-329.007-264.154-297.719-464.593 24.652-226.607 254.104-403.342 479.573-366.933 233.813 25.031 413.013 268.705 363.71 499.674-37.167 243.674-311.372 412.255-545.564 331.852zM734.056 623.313c21.049 25.41 73.956 10.050 70.163-25.79 7.585-28.634-26.169-43.994-39.822-64.284-106.572-102.4-206.696-212.006-316.113-311.561-7.585-1.138-23.135-3.413-30.91-4.361-66.75 54.424-124.397 119.467-185.268 180.527-39.064 30.91 10.24 98.039 50.821 65.612 52.527-43.804 97.090-96.332 146.773-143.36 101.831 100.504 201.576 203.473 304.356 303.218z" />
<glyph unicode="&#xe922;" glyph-name="menu" d="M1002.666 780.8h-981.332c-11.776 0-21.334-9.558-21.334-21.334s9.558-21.334 21.334-21.334h981.334c11.776 0 21.334 9.558 21.334 21.334s-9.56 21.334-21.336 21.334zM1002.666 482.134h-981.332c-11.776 0-21.334-9.558-21.334-21.334s9.558-21.334 21.334-21.334h981.334c11.776 0 21.334 9.558 21.334 21.334s-9.56 21.334-21.336 21.334zM1002.666 183.466h-981.332c-11.776 0-21.334-9.556-21.334-21.332s9.558-21.334 21.334-21.334h981.334c11.776 0 21.334 9.558 21.334 21.334-0.002 11.776-9.56 21.332-21.336 21.332z" />
<glyph unicode="&#xe923;" glyph-name="clock" d="M512 896c-260.267 0-469.333-209.067-469.333-469.333s209.067-469.333 469.333-469.333 469.333 209.067 469.333 469.333-209.067 469.333-469.333 469.333zM512 42.667c-213.333 0-384 170.667-384 384s170.667 384 384 384c213.333 0 384-170.667 384-384s-170.667-384-384-384zM699.733 379.734l-145.067 72.533v230.4c0 25.6-17.067 42.667-42.667 42.667s-42.667-17.067-42.667-42.667v-256c0-17.067 8.533-29.867 25.6-38.4l170.667-85.333c4.267-4.267 8.533-4.267 17.067-4.267 17.067 0 29.867 8.533 38.4 25.6s0 42.667-21.333 55.467z" />
<glyph unicode="&#xe924;" glyph-name="clock265" horiz-adv-x="1018" d="M262.48 906.963c98.524 54.671 215.561 74.457 326.696 56.118 105.524-17.009 205.436-68.498 279.835-145.327 78.796-78.854 129.649-184.841 142.434-295.514 13.364-107.433-9.314-219.032-63.407-312.812-60.399-106.103-160.427-188.89-275.959-228.288-76.193-26.439-158.691-32.861-238.471-22.1-126.351 17.877-244.603 86.085-323.688 186.171-64.101 79.49-102.111 178.766-109.921 280.414v70.87c10.761 169.683 112.929 329.647 262.48 410.468zM436.965 892.963c-106.565-16.893-205.263-75.672-272.025-160.253-60.167-75.614-95.053-171.882-94.243-268.728-2.025-101.532 35.406-202.659 100.144-280.53 80.474-97.887 205.436-159.038 332.54-158.113 94.706-2.198 189.295 29.91 264.852 86.664 83.945 62.424 144.575 155.683 166.038 258.198 21.29 95.805 7.926 198.552-36.158 286.084-40.729 81.862-107.838 150.245-188.89 192.535-82.788 43.679-179.923 59.762-272.257 44.142zM466.354 755.33c14.348 17.934 46.34 15.215 57.217-5.033 5.38-7.752 4.223-17.356 4.513-26.207-0.405-84.813 0-169.683-0.231-254.496 80.821-0.463 161.642 0.289 242.462-0.347 20.364-0.058 37.662-20.538 33.613-40.786-1.446-16.835-17.298-30.662-34.191-29.794-92.623-0.116-185.246-0.116-277.811 0-19.092-0.926-34.828 17.009-34.423 35.522-1.215 92.796 0.058 185.651-0.579 278.505 0.231 14.521-0.926 31.009 9.43 42.638z" />
<glyph unicode="&#xe925;" glyph-name="Layer-923-copy" horiz-adv-x="1158" d="M562.755 960h37.843c166.511-10.685 280.932-146.922 418.95-223.054 125.551-48.083 178.532-218.602 85.482-322.337 13.357-19.59 39.624-58.769 52.536-78.358v-152.71l-3.117 113.085-43.186-95.722-71.235-33.837c-27.603-0.445-83.256-0.89-110.859-0.89-30.72-73.016-7.123-154.045-5.343-230.177h-17.363c-21.37 77.468-119.318 137.572-169.628 208.362-145.141 10.685-286.275-4.007-430.97-2.226-128.668 63.666-236.856 152.71-305.864 280.487v26.268c20.925 116.202 100.619 208.362 145.586 315.214 44.077 98.393 183.875 59.214 223.944 166.066 65.447 4.007 130.894 6.678 193.224 29.83z" />
<glyph unicode="&#xe926;" glyph-name="analytics" d="M1022.336 972.8h1.664v-225.024c-8.448 0.128-25.216 0.256-33.664 0.384 0 45.44 0 90.88 0 136.448-36.736-62.464-73.728-124.672-109.952-187.392 83.712-130.688 102.528-300.928 43.776-445.184-64.384-167.040-227.968-288.128-406.272-303.232h-74.752c-119.296 10.368-234.112 65.024-314.88 153.6-73.856 78.464-117.248 182.528-128.256 289.28v76.032c13.568 192.128 150.272 368.768 335.104 425.088 148.992 48.512 318.592 15.488 441.472-80.896-5.248-6.784-15.744-20.352-20.992-27.136-51.584 37.12-108.16 68.608-170.496 83.072-155.264 39.552-329.088-14.208-435.2-134.144-98.304-106.496-135.808-260.992-106.368-401.92 25.472 21.888 50.56 44.16 75.136 67.072-12.928 43.52 9.984 99.84 60.928 99.84 50.944 3.328 74.88-50.304 68.096-94.080 23.296-17.28 46.976-34.304 70.784-50.944 21.376 5.12 43.008 9.6 64.512 13.696 32.64 53.76 63.872 108.288 95.36 162.56-7.296 22.528-22.016 45.824-13.696 70.272 9.984 40.832 62.336 61.696 97.664 39.168 24.96-12.672 28.544-42.496 36.736-66.176 28.416-11.648 57.088-22.912 85.888-33.664 23.296 17.024 50.56 25.6 79.232 28.032 67.2 114.816 134.912 229.248 201.984 344.192-50.304-20.992-100.48-42.24-150.784-63.232-3.328 7.936-9.856 23.808-13.184 31.744 73.472 30.592 146.688 62.080 220.16 92.544zM792.832 548.096c8.064-19.712 21.376-39.936 15.744-62.208-6.144-44.416-62.592-70.016-99.968-44.928-24.704 12.928-29.312 41.856-35.2 66.304-29.44 11.136-58.624 22.4-88.064 33.408-21.248-18.56-47.36-28.16-75.904-26.752-33.024-54.784-64.896-110.208-96.896-165.632 11.648-24.064 25.728-51.968 11.008-78.208-16.896-41.344-77.568-51.84-107.52-18.816-20.864 18.56-18.432 48-17.92 73.216-23.808 17.92-47.744 35.584-71.808 53.12-26.496-13.184-55.808-15.36-83.584-4.352-29.696-25.984-58.88-52.48-88.448-78.72 15.36-42.624 35.328-83.456 60.032-121.472 0.896 30.976 1.024 61.952 1.152 92.8 8.32 0 25.088-0.256 33.408-0.384 0-45.184 0.128-90.496-0.128-135.808 20.864-20.608 42.624-40.576 65.28-59.392 0.768 65.152 0.128 130.304 0.384 195.456 8.448-0.128 25.216-0.128 33.536-0.128 0.128-72.832 0-145.664 0.128-218.496 21.632-11.136 43.392-22.016 65.28-32.64 0.256 39.168 0.256 78.336 0.256 117.504 8.448 0 25.216 0 33.536 0 0.128-43.264 0-86.528 0.128-129.92 21.76-5.12 43.52-10.112 65.28-14.976 0.256 59.52 0.128 119.040 0.256 178.56 8.32 0 25.216 0.128 33.536 0.128 0.256-60.8 0.128-121.6 0.256-182.4 21.504-0.128 43.008-0.128 64.512 0 0.256 138.368 0 276.736 0.128 415.104 8.576-0.128 25.856-0.128 34.432-0.128 0.128-137.088-0.128-274.176 0.128-411.392 21.632 4.992 43.136 9.984 64.64 15.232-0.128 137.728-0.128 275.328 0 413.056 8.576 0 25.728 0 34.304 0 0.256-133.632-0.256-267.136 0.384-400.768 21.632 10.752 43.136 21.632 64.512 32.768-0.128 94.848 0 189.824-0.128 284.8 8.704 0 25.856 0.128 34.432 0.128 0.384-87.168-0.512-174.464 0.512-261.632 22.272 18.688 43.648 38.4 64.384 58.752-0.128 78.848-0.128 157.568 0 236.416 8.32 0 25.216 0 33.536 0 0.384-64.256-0.384-128.512 0.64-192.768 100.992 142.208 107.648 341.504 17.92 490.88-23.296-38.272-45.952-76.8-68.096-115.712zM507.392 606.208c-32-24.064 7.68-76.288 39.808-51.84 36.992 23.68-7.168 83.2-39.808 51.84zM736.384 530.432c-41.728-7.296-26.88-74.752 13.696-64.384 41.984 7.424 26.752 74.752-13.696 64.384zM173.824 463.36c-42.624-8.192-23.168-78.592 17.664-62.848 39.424 10.24 21.248 74.624-17.664 62.848zM350.208 328.704c-41.6-16.64-7.808-83.712 30.080-58.24 34.944 18.688 4.992 75.904-30.080 58.24zM378.88 815.232c11.648 0 23.168 0 34.816 0-0.128-9.216-0.128-27.776-0.128-36.992 8.064 0.768 24.32 2.304 32.384 3.072-0.128-8.832-0.256-26.752-0.256-35.712-8.32 1.408-24.704 4.224-32.896 5.632 0.256-9.216 0.896-27.52 1.152-36.736-11.776 0-23.552 0-35.328 0 0.512 9.216 1.408 27.904 1.92 37.12-8.064-1.536-24.32-4.608-32.384-6.144-0.64 9.472-1.92 28.416-2.56 37.888 8.576-1.92 25.6-5.76 34.176-7.68-0.256 9.856-0.64 29.568-0.896 39.552zM386.176 775.808c-6.4-21.504 0.512-28.8 20.736-21.888 6.784 21.632-0.128 28.928-20.736 21.888zM676.864 731.904c11.392 0 22.912 0.128 34.432 0.256-1.024-9.216-3.072-27.392-4.096-36.608 28.032 12.928 42.368-1.536 36.864-29.952-8.576-0.768-25.856-2.304-34.56-3.072 0.384-7.808 1.024-23.424 1.28-31.232-8.448 0-25.472-0.128-33.92-0.256 0 8.192 0.128 24.704 0.128 32.896-8.32 0-24.832 0.128-33.152 0.128 0.128 8.704 0.256 26.112 0.256 34.816 8.192-0.384 24.576-0.896 32.768-1.28 0 8.576 0 25.728 0 34.304zM682.752 692.096c-6.784-21.376 0.256-28.672 21.248-21.888 6.4 20.992-0.768 28.288-21.248 21.888zM247.168 633.728c25.6 2.816 41.344-6.656 35.968-35.072 7.808-0.128 23.424-0.256 31.36-0.384 0-8.32 0.128-24.832 0.128-33.152-8.32-0.128-25.088-0.512-33.408-0.64-0.128-8.448-0.512-25.088-0.768-33.536-8.192 0.128-24.832 0.128-33.152 0.256 0 8.32-0.256 25.088-0.384 33.408-8.064 0.128-24.32 0.128-32.512 0.128 0 11.264 0 22.528 0 33.792 8.192-0.128 24.576-0.128 32.768-0.128 0.256-8.32 0.64-24.96 0.896-33.28 8.064 0.128 24.064 0.512 32.128 0.64 0 7.936 0 24.064 0 32-8.192 0-24.704 0-32.896 0-0.128 12.032-0.128 23.936-0.128 35.968zM610.304 482.432c11.52 0 23.040 0 34.56 0 0-11.52-0.128-22.912-0.128-34.432-8.576 0-25.728 0-34.304 0 0 11.52-0.128 22.912-0.128 34.432zM511.232 465.536c11.52 0 22.912 0 34.432 0.128 0-11.52 0-23.040 0-34.56-11.52 0.128-22.912 0.128-34.432 0.128 0 8.576 0 25.728 0 34.304zM809.088 432.256c8.32 0 25.216-0.256 33.536-0.384-0.128-8.704-0.256-25.984-0.384-34.688-8.448 0.256-25.344 0.512-33.792 0.768 0.128 8.576 0.512 25.728 0.64 34.304zM709.632 363.008c0 11.776 0 23.68 0 35.456 8.96 0 26.88-0.128 35.84-0.128 6.656-29.184-10.112-37.376-35.84-35.328zM115.328 332.288c8.448-0.128 25.216-0.384 33.664-0.512 0-8.32-0.128-24.96-0.128-33.28-8.448-0.128-25.216-0.256-33.536-0.256 0 8.448 0 25.6 0 34.048zM214.4 332.032c11.264 0 22.4 0 33.664 0 0-8.448 0-25.216 0-33.664-11.264 0-22.528 0-33.792 0 0.128 8.448 0.128 25.344 0.128 33.664zM412.672 231.936c8.448 0 25.344 0 33.792 0 0-8.32 0-25.216-0.128-33.664-8.32 0-25.216 0.128-33.536 0.128 0 8.448-0.128 25.088-0.128 33.536zM311.936 199.168c11.776 0 23.552 0 35.328 0 0-8.96-0.128-26.88-0.128-35.84-29.44-6.656-37.632 9.984-35.2 35.84z" />
<glyph unicode="&#xe927;" glyph-name="brainstorm" horiz-adv-x="1012" d="M917.090 972.8h17.189c17.554-25.234 43.642-41.935 68.023-59.611-4.754-6.827-14.507-20.358-19.383-27.185-13.044 9.509-25.966 19.017-39.010 28.404-3.413-68.998 19.139-158.842-47.177-205.653-53.638-44.251-133.73 2.072-185.783-43.398-33.524-28.526-24.747-76.19-26.575-115.2 59.733-25.722 102.766-79.238 114.347-143.36 40.838-17.92 69.973-51.81 96.67-86.309 3.291-52.419-3.17-107.032-37.912-148.846 11.459-52.785 3.291-113.006-39.619-149.943-43.154-42.667-110.080-43.398-163.23-20.602-32.305-28.891-72.655-53.394-117.882-48.152-41.813 0.975-75.581 27.55-103.741 55.71-48.152-28.038-106.057-28.891-155.794-4.267-50.712-7.436-107.398 2.072-141.41 43.764-36.571 38.034-39.253 93.623-28.77 142.507-19.992 41.448-32.061 91.063-11.337 134.705 14.141 38.888 49.371 62.903 84.602 80.823 14.629 52.663 50.103 103.253 107.52 113.25-1.95 12.8 0.731 32.792-24.503 24.625-0.366 15.36-0.488 30.842-0.731 46.324 11.337 0 22.674 0 34.133 0-1.097-11.947-3.048-35.962-4.023-48.030 26.819-10.85 57.295-30.842 84.358-9.143-2.316 47.543 3.657 95.817-4.876 142.75-11.215 39.863-56.686 46.69-92.038 44.495-35.718-2.682-78.141 7.802-107.886-17.067-38.766-32.549-6.095-93.745-41.326-128-19.505-21.211-50.956-16.457-76.556-20.968 9.874-12.8 19.749-25.6 29.623-38.4-7.070-4.023-20.968-11.947-27.916-15.848-20.968 22.43-38.888 47.421-56.076 72.899v0.61c17.798 25.6 36.815 50.225 55.467 75.215 6.705-4.876 20.114-14.507 26.819-19.261-9.509-13.897-18.895-27.794-28.282-41.691 18.895 4.876 45.958-2.072 58.149 17.432 10.118 38.278-0.731 84.602 29.867 115.444 29.379 36.206 79.36 32.305 121.295 33.768-0.122 7.924-0.366 23.65-0.488 31.573 8.168 0 24.625 0 32.914 0-0.244-7.436-0.61-22.309-0.731-29.623 31.086-5.12 66.316-8.168 88.015-34.255 40.838-45.227 22.43-110.933 25.966-165.912 41.813 4.998 82.773-4.998 115.688-31.573 38.156 23.893 81.92 34.865 126.781 33.524-0.244 9.63-0.731 28.648-0.975 38.156-10.484 11.825-17.798 25.356-22.065 40.594 6.339 0.853 18.895 2.682 25.234 3.535 18.408 36.084 46.446 72.899 89.966 77.288 51.688 8.899 121.417-13.775 154.21 40.716 23.771 47.787 8.655 104.229 12.556 155.672-13.166-9.509-26.331-18.895-39.497-28.282-4.632 6.827-13.897 20.358-18.53 27.063 22.309 15.97 44.13 32.914 62.537 53.394l2.194 6.339zM409.234 518.949c0-36.328 0-72.777-0.122-109.227-8.168 0-24.625 0.122-32.792 0.122 0 23.771 0.244 47.665 0.488 71.436-26.331 5.486-52.907 9.752-79.848 10.362-0.731-16.335-1.341-32.67-1.829-49.128-7.924 0-23.771-0.122-31.695-0.122-0.488 8.411-1.585 25.112-2.072 33.524-28.526-24.869-46.568-58.392-48.152-96.67-39.375-9.874-78.507-34.255-89.966-75.581-14.263-37.79 1.829-76.922 23.162-108.373-7.314-25.112-17.432-51.566-9.387-78.019 11.093-56.808 74.85-95.451 130.438-77.897 54.004 14.629 88.99 76.312 72.168 130.194-6.217 29.135-31.33 47.299-50.225 68.145 3.413 7.192 10.24 21.577 13.653 28.77 30.354-20.602 55.467-48.152 68.145-83.139 18.651 7.314 36.937 15.604 54.491 25.234 5.242-6.461 15.848-19.505 21.211-25.966-21.577-13.044-44.13-24.381-67.779-33.036-0.488-50.347-25.356-94.964-62.171-128 47.177-9.752 94.842 6.339 125.562 43.642 15.482-35.352 42.057-69.608 82.408-76.678 38.034-10.24 74.606 9.021 102.766 33.036-21.699 27.185-36.693 58.758-42.789 93.013 8.168 0.975 24.381 2.926 32.549 3.901 8.168-46.568 40.594-91.185 89.966-98.011 70.949-15.116 139.947 59.733 117.638 129.097-9.387 44.861-51.322 70.705-93.623 78.019 0.61 7.68 1.707 23.162 2.194 30.964 41.57-4.754 77.897-25.844 106.179-55.832 12.8 28.526 39.131 72.655 7.924 97.768 2.56 46.202-43.398 68.51-81.067 78.872-1.829 55.467-31.695 106.545-80.579 133.242-1.95-42.301 3.657-90.331-26.088-124.952-24.015-33.402-65.95-43.52-104.96-45.349-0.122 8.29-0.244 24.869-0.366 33.158 26.819 3.413 57.295 6.461 75.459 29.257 29.989 31.817 19.383 79.116 21.333 118.613-76.312 11.215-155.307-45.227-164.084-122.758-10.118-77.775 56.808-149.090 132.876-155.429 0-8.168-0.122-24.747-0.244-33.036-84.846 5.12-160.914 76.556-166.4 162.133-5.242 47.421 19.139 90.331 45.592 127.39-26.088 20.358-58.27 25.844-89.966 17.31zM204.434 913.067c24.869 19.017 49.859 37.912 74.971 56.686 24.99-18.773 49.981-37.669 74.971-56.686-4.632-6.827-13.897-20.236-18.53-27.063-19.017 13.531-37.79 27.429-56.564 41.326-18.53-13.897-37.059-27.672-55.589-41.448-4.876 6.827-14.507 20.358-19.261 27.185zM466.164 912.945c21.699 21.821 48.152 37.912 72.411 56.808 25.112-18.895 50.103-37.79 75.093-56.686-4.876-6.705-14.507-19.992-19.383-26.697-14.263 10.24-28.16 21.090-43.764 29.379-28.404 5.486-49.493-17.432-72.168-29.989-3.048 6.827-9.143 20.358-12.19 27.185zM262.827 883.688c10.971 0 21.943 0 32.914 0-0.122-16.579-0.122-33.036-0.244-49.493-10.85 0-21.699-0.122-32.549-0.122-0.122 16.579-0.122 33.036-0.122 49.615zM521.996 867.596c11.093 0 22.309 0.122 33.402 0.122 0-16.579 0.122-33.036 0.122-49.615-11.215 0-22.43 0-33.646 0 0 16.579 0 33.036 0.122 49.493zM521.874 769.341c11.215 0 22.309 0.122 33.402 0.122 0.122-16.823 0.366-33.768 0.488-50.712-8.411-0.975-25.356-3.17-33.768-4.145-0.122 18.164-0.122 36.45-0.122 54.735zM262.827 687.909c10.971 0 21.821 0 32.792 0 0-16.579 0-33.036 0-49.615-10.971 0-21.821 0-32.792 0 0 16.579 0 33.036 0 49.615zM536.869 661.090c9.63 5.608 19.261 11.093 28.891 16.701 9.752-9.874 19.749-19.749 29.623-29.501-6.339-9.752-12.678-19.505-18.895-29.379-13.531 13.775-26.819 27.794-39.619 42.179zM732.404 639.269c16.335 0 32.67-0.122 49.128-0.122 0-8.411 0.122-25.234 0.122-33.646-16.579 0.122-33.158 0.122-49.737 0.122 0.122 8.411 0.366 25.234 0.488 33.646zM829.806 639.025c16.091 0.122 32.305 0.244 48.518 0.488 0.366-8.533 0.975-25.478 1.219-34.011-16.701 0.122-33.402 0.122-49.981 0.122 0 8.411 0.122 25.112 0.244 33.402zM929.89 635.49c16.213-10.118 35.718-17.31 46.568-34.133-14.019-30.354-38.034-9.63-58.149 0.61 3.901 11.215 7.68 22.43 11.581 33.524zM982.43 544.549c18.773 14.629 34.011-20.48 18.286-31.817-20.236-14.507-33.646 19.505-18.286 31.817zM975.238 459.337c8.411 0 25.112 0.122 33.402 0.244 0.122-19.261 0.122-38.522 0.122-57.783-8.411 0.488-25.112 1.463-33.524 1.95 0 18.53 0 37.059 0 55.589zM262.827 394.606c10.971 0 21.821-0.122 32.792-0.122 0-16.701 0-33.524 0-50.225-10.971 0-21.821 0-32.792-0.122 0 16.823 0 33.646 0 50.469zM933.669 337.554c10.606 9.63 21.090 19.261 31.573 28.891 9.021-7.070 17.92-14.141 26.819-21.333-13.897-12.556-27.916-24.99-42.057-37.303-4.023 7.436-12.19 22.309-16.335 29.745zM748.983 328.899c16.091 0.122 32.183 0.122 48.274 0.122 0.244-11.093 0.488-22.309 0.731-33.524-16.457 0-32.792 0-49.128 0 0 11.093 0.122 22.309 0.122 33.402z" />
<glyph unicode="&#xe928;" glyph-name="briefcase" d="M372.708 972.8h241.271c78.834-17.675 72.381-107.45 69.155-169.872 75.888-1.403 151.776 2.244 227.524-1.262 43.345-0.842 79.535-40.259 79.115-83.182 2.805-116.287 0-232.715 0.701-349.002-0.982-50.499 29.458-94.404 33.525-144.342v-43.625c-10.1-120.075-111.658-221.773-231.592-232.715h-50.078c-63.825 7.435-121.618 39.417-166.645 84.585-163.7 1.403-327.54-0.982-491.239 0.982-41.521-1.683-74.345 31.141-84.445 69.436v629.129c10.24 33.385 35.63 65.508 72.802 67.893 77.852 5.19 155.985 0.421 233.837 2.104-2.385 62.001-9.959 148.55 66.069 169.872zM384.21 936.75c-61.861-12.484-38.155-89.214-42.222-133.821 8.276 0 24.828-0.14 33.105-0.14 0 33.385 0.14 66.911 1.403 100.296 79.115 2.525 158.79 5.751 237.764-1.824 0.281-32.824 0.281-65.648 0.561-98.472 8.276 0 24.688 0 32.964 0-4.629 44.186 19.358 116.427-38.155 133.401-74.906 4.489-150.514 3.507-225.42 0.561zM410.301 870.119c0-22.444 0-44.747 0-67.191 56.39-0.14 112.78-0.14 169.030 0 0.14 22.304 0.14 44.747 0.14 67.051-56.39 0.281-112.78 0.281-169.17 0.14zM35.209 719.185c-1.964-64.386-1.683-128.912 0-193.298 0.561-41.381 35.91-78.974 77.572-80.798 92.721-2.665 185.582 0.14 278.444-0.982 0.982 22.163 1.543 44.327 2.665 66.35 66.911 3.787 134.102 1.824 201.013 1.262 1.824-22.444 2.946-45.028 3.928-67.612 49.517-4.208 97.771 5.751 145.885 15.851 50.218 10.661 98.192-21.602 147.708-12.484 39.838 9.679 65.929 50.499 62.843 90.617 0.14 61.159 1.964 122.319-0.982 183.338-0.281 28.476-29.317 48.815-56.39 45.87-266.661 0.701-533.462 0.14-800.263 0.14-29.738 4.348-62.422-16.272-62.422-48.254zM426.994 477.352c0-8.276 0-24.828 0-33.105 45.168-0.14 90.477-0.14 135.785 0-0.14 8.276-0.14 24.828-0.14 33.105-45.168 0.14-90.477 0.14-135.645 0zM33.525 441.442c2.385-107.73-1.262-215.461 1.683-323.191-0.421-26.091 22.724-50.078 49.236-48.675 154.862-1.824 309.725 0.281 464.587-0.842-67.893 110.115-39.136 262.453 62.983 341.146-124.002-1.824-248.145-0.421-372.287-0.701-0.421-27.915-1.122-55.689-2.244-83.603-38.435-1.824-76.87-1.824-115.165-1.403-2.665 27.494-3.367 54.987-3.507 82.481-30.72 5.19-59.616 16.973-85.287 34.788zM914.025 416.473c13.887-12.064 27.634-24.127 41.521-36.191 0 20.48 0 41.1 0.14 61.58-13.887-8.557-27.774-16.973-41.661-25.39zM545.946 223.176c8.557-0.421 25.81-0.982 34.367-1.262 0.14-8.416 0.281-25.249 0.421-33.806-8.837-0.561-26.372-1.824-35.068-2.525 12.625-104.504 98.332-192.736 204.239-202.836 0.14 8.416 0.281 25.249 0.421 33.666 8.416 0.561 24.969 1.824 33.245 2.385 0.982-8.978 2.805-27.213 3.787-36.191 104.644 11.643 191.193 98.192 202.836 202.836-8.978 0.982-27.213 2.946-36.331 3.928 0.701 8.276 1.964 24.828 2.665 33.105 8.416 0.14 25.109 0.281 33.525 0.421-10.38 105.767-98.332 192.175-203.117 204.519-0.561-8.837-1.683-26.512-2.104-35.209-8.557 0-25.53 0.14-33.946 0.281-0.281 8.557-0.842 25.67-1.122 34.367-105.486-10.661-193.017-98.332-203.818-203.678zM154.442 409.319c0-16.833 0-33.525 0-50.358 16.552 0.14 33.245 0.14 49.797 0.281 0 16.552 0 33.105 0 49.657-16.552 0.14-33.245 0.281-49.797 0.421zM683.134 530.797c27.073 2.946 41.942-8.136 35.489-37.734-9.679 1.122-29.177 3.507-38.856 4.629 0.842 8.276 2.525 24.828 3.367 33.105zM751.307 530.797c27.915 3.787 41.942-7.855 35.77-37.593-9.539 1.122-28.616 3.086-38.155 4.208 0.561 8.276 1.824 24.969 2.385 33.385zM819.481 529.254c8.557 0 25.67 0 34.227 0 0.14-8.837 0.421-26.792 0.561-35.63-9.258 0.561-27.634 1.683-36.892 2.244 0.561 8.276 1.543 24.969 2.104 33.385zM750.466 359.101c8.837 0 26.372 0 35.068 0 0-48.815 0.14-97.631-0.14-146.446 32.544-32.824 65.227-65.508 97.911-98.192-6.172-6.312-18.656-18.656-24.828-24.969-36.331 36.331-73.083 71.961-108.292 109.414 0.421 53.304 0.281 106.748 0.281 160.193z" />
<glyph unicode="&#xe929;" glyph-name="check" d="M0 867.78c14.765 51.2 60.964 92.398 116.688 87.873 184.796 2.381 369.593 0 554.389 0.714 0.238-37.15 0.238-74.3 0-111.449-185.987-0.238-371.974 0-557.961-0.238 0-255.047 0-509.857 0.238-764.666 259.81-0.238 519.62-0.238 779.669-0.238 0 146.456 0 292.673 0 438.891 37.626 0.238 75.252 0.238 113.116 0.238-1.667-151.219 3.572-302.437-2.143-453.418-2.381-59.773-63.583-101.686-120.499-95.494-256.238-0.476-512.238-1.191-768.238 0.238-54.058-5.239-96.208 35.007-115.26 81.92v815.628zM447.226 398.646c160.030 156.934 320.536 313.392 480.089 470.802 26.672-25.957 53.343-52.153 79.777-78.11-186.463-183.129-373.403-365.782-559.866-549.15-84.54 82.158-168.603 164.793-252.666 247.189 26.433 26.433 52.629 52.867 79.062 79.3 57.868-56.677 115.021-113.831 173.604-170.032z" />
<glyph unicode="&#xe92a;" glyph-name="heart" horiz-adv-x="1013" d="M93.794 972.8h822.141c49.893-5.338 90.090-45.862 97.171-95.101v-828.133c-4.902-63.292-66.124-106.104-127.455-100.766h-734.23c-65.689-9.804-141.181 23.203-151.421 94.23v835.54c6.645 48.259 45.753 87.149 93.794 94.23zM80.395 914.083c-22.114-11.22-31.156-36.929-29.413-60.46 0.218-261.883 0-523.874 0.109-785.757-4.14-33.117 22.659-66.56 56.974-64.708 265.804-0.871 531.609-0.98 797.304 0 34.206-1.525 60.46 32.136 55.993 65.035-0.327 265.477 0.436 530.955-0.327 796.323 1.634 30.393-25.927 57.518-56.211 56.102-258.070 1.198-516.14-0.218-774.209 0.654-16.776-0.763-34.969 1.089-50.22-7.19zM289.77 639.346c59.261 53.923 155.125 52.616 216.565 2.832 61.658 49.457 157.304 51.091 216.347-3.268 69.937-57.736 77.345-173.753 14.706-239.442-64.49-66.669-129.961-132.357-195.758-197.719-17.648-21.025-52.398-21.134-70.046-0.109-65.797 65.362-131.377 131.268-195.976 197.828-62.856 65.689-55.884 182.032 14.162 239.877zM296.742 565.814c-23.639-43.683-14.489-101.42 21.025-136.061 62.747-63.837 126.148-126.802 188.895-190.638 62.529 64.054 126.366 127.020 189.004 191.074 31.374 31.265 41.614 80.722 25.927 122.009-19.391 56.102-85.842 90.090-142.489 70.482-27.234-6.754-44.337-30.938-68.085-43.792-22.986-0.436-35.84 23.312-54.468 33.334-53.706 34.533-132.357 10.785-159.809-46.407z" />
<glyph unicode="&#xe92b;" glyph-name="meeting" horiz-adv-x="1011" d="M169.6 972.8h266.24c3.072-38.656 2.944-77.44 1.92-116.096-30.336-1.152-61.056 0.384-91.136-3.968-30.976-13.056-53.888-43.52-88.576-47.616-3.328 16.64-6.272 33.28-8.704 50.048-26.752 0.256-53.504 0.512-80.128 1.152-1.536 38.784-1.024 77.696 0.384 116.48zM202.496 939.136c0-12.288 0-36.736 0-48.896 31.616-4.48 80.128 14.336 89.728-29.184 29.44 32 71.936 30.848 111.872 29.184-0.128 12.288-0.128 36.736-0.128 48.896-67.2 0-134.4 0-201.472 0zM589.44 923.136c8.704 0 25.984 0 34.688 0 0-8.576-0.128-25.728-0.128-34.432-8.576 0-25.856 0-34.432 0 0 8.576 0 25.856-0.128 34.432zM653.568 889.6c-0.896 25.216 10.88 39.168 37.504 36.48 0-9.344 0.128-28.16 0.128-37.632-9.472 0.256-28.288 0.896-37.632 1.152zM723.968 888.704c0 11.52 0 23.040 0 34.56 8.832 0 26.496-0.128 35.2-0.128 0-11.392 0-22.912 0.128-34.304-11.776 0-23.552 0-35.328-0.128zM57.088 775.424c45.952 65.792 156.928 60.16 195.968-9.984 34.048-51.968 13.184-118.784-29.824-158.208 44.032-53.12 28.16-124.672 30.336-187.904 22.016 0 44.032 0 66.048-0.128 2.688 49.92-9.216 105.984 20.608 149.888 17.152 27.648 48.896 39.296 76.928 52.352-27.648 41.088-43.008 96-14.72 140.928 37.12 71.68 148.608 80.128 196.096 14.976 39.040-45.184 27.904-110.592-4.48-155.904 28.032-13.056 59.52-24.704 76.8-52.096 29.824-44.032 18.176-100.224 20.736-150.144 22.272 0.128 44.544 0.128 66.816 0.128 2.688 63.232-14.592 134.784 29.568 187.904-45.952 41.088-64.64 113.92-24.832 165.632 44.416 67.456 156.544 64.128 196.864-6.016 31.104-45.056 16.512-102.528-11.008-145.28 25.984-16.128 50.816-35.712 62.208-65.28v-289.92c-10.624-33.024-38.656-53.504-66.944-70.656-0.384-82.304-0.128-164.608-0.128-246.912h-34.688c0 83.712 0.128 167.424 0 251.136-50.048 0-100.096 0-150.272 0-0.256-83.712 1.024-167.424-1.152-251.136h-132.224c-5.76 94.72-1.28 189.824-2.688 284.672-33.28 0-66.56 0-99.84 0 0-83.584 0-167.296 0-251.008 22.272 0 44.672 0 66.944 0 0.128-8.448 0.384-25.216 0.512-33.664h-169.984c0 8.448 0.128 25.216 0.128 33.664 22.4 0 44.672 0 67.072 0 0 83.712 0 167.424 0 251.008-33.28 0-66.56 0-99.84 0-0.512-94.848 1.024-189.824-1.152-284.672h-132.864c-2.432 83.712-0.896 167.424-1.28 251.136-50.432 0-100.736 0-151.040 0-0.128-83.712 0-167.424 0-251.136h-34.688c0 82.304 0.256 164.608-0.128 246.912-27.648 16.896-54.656 36.992-66.944 68.224v289.792c9.856 31.36 35.712 51.584 62.336 68.224-30.464 45.056-42.496 108.288-5.248 153.472zM107.776 774.912c-52.352-29.056-51.968-112.896 0.384-141.696 51.712-35.2 129.792 8.448 127.104 70.784 2.944 62.72-75.776 106.752-127.488 70.912zM464.896 776.832c-56.448-28.032-56.192-118.016 0.64-145.536 51.84-31.872 125.952 11.904 123.648 72.448 2.816 61.184-72.192 105.728-124.288 73.088zM822.4 778.752c-52.992-23.424-62.592-103.808-16-138.624 46.592-42.496 130.048-9.472 135.936 52.864 11.648 63.104-63.744 117.376-119.936 85.76zM36.48 548.992c-4.736-84.992-1.024-170.496-1.92-255.616-3.328-27.008 15.104-56.192 43.648-57.6 68.992-3.968 138.24 0.768 207.232-2.56 3.584-83.456 1.024-167.168 1.792-250.752 22.144 0 44.288 0 66.304 0-0.384 87.296 0.896 174.72-0.256 262.016 2.432 26.88-17.28 55.552-45.952 55.296-57.216 3.072-114.688-1.152-171.904 3.072-1.92 61.184-0.768 122.368-1.024 183.552 8.576 0 25.728 0 34.432 0 0-50.432 0-100.736 0-151.168 78.336 0 156.8-0.128 235.136 0 0 12.416 0 37.12 0 49.536-60.8 2.048-122.24-4.992-182.528 3.84-9.472 56.448 4.608 114.816-8.32 170.496-18.56 35.968-64.512 26.112-97.536 27.904-29.824 1.664-72.192-1.536-79.104-38.016zM365.184 543.232c-18.304-38.272-8.448-82.56-10.88-123.392 25.984-0.384 51.968 0.384 77.824-2.56 11.136-25.6 4.864-55.040 6.784-82.176 44.416 0.128 88.832 0.128 133.376 0 1.792 27.264-3.968 56.32 6.528 82.176 25.856 2.944 51.968 2.176 78.080 2.56-2.56 41.088 7.68 85.76-11.264 124.032-14.208 28.928-46.976 37.504-75.264 46.208-19.584-45.824-32.256-94.592-56.448-138.368l-16.64 0.384c-24.448 43.52-36.736 92.288-56.448 137.984-28.544-8.704-61.568-17.536-75.648-46.848zM480.128 586.496c8.448-22.656 16.896-45.312 25.344-67.84 8.576 22.528 17.152 45.184 25.728 67.712-17.024 0-34.048 0-51.072 0.128zM797.952 558.72c-13.312-55.936 2.56-114.816-9.344-171.136-60.16-6.528-120.96-1.408-181.376-2.816 0-16.512 0-33.024 0-49.536 78.464 0 156.8 0 235.136 0 0 50.432 0 100.736 0 151.168 8.704 0 25.856 0 34.432 0-0.256-61.184 0.896-122.368-1.024-183.552-57.344-4.224-114.816 0-172.16-3.072-29.184 0.128-48.384-29.44-45.696-56.576-1.152-86.912 0.128-173.824-0.256-260.736 22.016 0 44.16 0 66.304 0 0.768 83.584-1.792 167.296 1.664 250.752 69.248 3.328 138.624-1.408 207.744 2.56 28.544 1.664 46.72 31.104 43.264 57.984 0 81.152 1.152 162.304-0.512 243.456 2.048 35.328-35.456 53.504-66.176 49.408-37.12-2.688-90.112 12.288-112-27.904zM370.304 300.032c4.864-7.552 14.336-22.656 19.2-30.208 77.184-3.072 155.008-3.072 232.192 0 4.864 7.552 14.336 22.656 19.072 30.208-90.112 1.152-180.224 1.152-270.464 0zM487.936 419.2c8.832 0 26.368 0.128 35.2 0.128 0-8.576 0.128-25.856 0.256-34.56-8.832 0-26.624 0-35.456-0.128 0 8.704 0 25.984 0 34.56z" />
<glyph unicode="&#xe92c;" glyph-name="leftcircle" horiz-adv-x="948" d="M78.252 741.712c104.845 179.888 338.531 274.646 537.065 203.119 234.144-77.182 369.557-345.409 319.885-582.152-36.986-229.865-253.096-424.578-491.061-405.015-240.105 11.31-429.469 231.088-444.141 464.315v69.54c5.961 88.033 31.179 175.303 78.252 250.192zM293.139 848.086c-137.247-72.75-222.682-225.891-223.14-379.95-3.821-162.464 88.186-326.763 236.284-397.832 120.129-60.523 271.742-48.449 381.478 28.886 106.068 71.68 171.94 193.337 185.237 319.427-127.465 0.459-255.083-0.306-382.548 0.459 12.991-18.799 38.515-32.554 38.209-57.772 7.183-29.956-35.305-57.008-58.078-34.847-44.628 41.571-83.601 89.103-126.090 132.814 44.017 43.1 80.544 94.758 129.452 132.356 60.523 12.533 58.383-69.54 17.27-92.466 127.312 1.834 254.777 0.306 382.242 0.917-12.38 138.011-88.798 271.436-210.302 341.282-111.112 66.484-256.459 69.235-370.016 6.725z" />
<glyph unicode="&#xe92d;" glyph-name="precent" horiz-adv-x="1041" d="M365.227 946.005c156.672 48.469 336.384 19.115 466.944-80.725 184.32-135.339 253.269-401.408 157.355-609.109-93.184-225.28-362.837-352.597-596.821-287.573-215.381 50.347-381.781 254.635-384.341 476.331-12.117 222.891 144.384 437.419 356.864 501.077zM435.029 874.496c-209.067-38.741-367.616-251.221-337.067-463.36 21.675-223.061 244.224-398.677 466.091-370.517 227.157 18.091 412.672 243.029 379.051 470.187-22.016 238.080-275.797 418.816-508.075 363.691zM329.728 660.309c43.691 36.011 119.125-5.973 105.131-62.635-4.949-45.568-66.389-68.608-101.888-41.301-34.816 22.699-33.792 77.995-3.243 103.936zM639.317 640c17.749 12.629 34.475 40.107 60.075 30.72 25.941-6.144 27.989-35.669 36.011-55.979-122.368-118.443-238.763-243.371-364.032-358.571-34.987-33.963-92.843 26.112-55.125 60.245 104.96 110.251 216.405 214.699 323.072 323.584zM637.269 368.981c42.155 26.624 103.083-11.776 97.28-60.928-0.853-47.104-59.221-74.24-98.133-51.371-42.155 22.187-40.619 90.453 0.853 112.299z" />
<glyph unicode="&#xe92e;" glyph-name="wallet" horiz-adv-x="1115" d="M8.777 677.851c-49.006 114.834 23.954 280.137 154.88 282.514 183.406 0.183 366.994-0.549 550.4 0.183 25.051 0 57.417 0 69.303-27.246 6.949-66.194 2.743-132.937 4.206-199.314 57.051-8.229 131.291 20.114 176.457-22.491 11.703-67.657 3.657-136.96 6.4-205.166 42.789-3.657 100.754 16.457 130.926-23.954 10.057-86.309 7.131-174.080 2.743-260.754-18.469-53.211-90.88-27.063-133.669-34.743-1.463-66.56 2.743-133.486-4.389-199.863-17.371-31.817-57.234-24.503-87.223-26.149-244.663 1.646-489.143-0.731-733.806 1.097-106.789-2.56-175.177 127.451-137.874 224l10.423 230.766-17.554-132.023v303.543l17.737-164.754-8.96 254.354zM162.56 734.903c177.006-2.377 354.194-0.183 531.2-0.914 0 44.983 0 89.783 0 134.766-182.126-1.097-364.617 2.743-546.377-3.84-67.84-18.651-55.771-128.914 15.177-130.011zM100.206 652.617c1.097-180.297-0.366-360.777 0.549-541.074-3.291-26.88 14.263-61.806 45.714-57.051 243.383-1.463 486.766-2.011 730.149-1.646 0 44.8 0 89.417 0 134.217-55.954 1.829-118.674-3.84-165.12 33.646-80.274 56.137-83.566 189.257-5.851 248.869 46.811 41.509 113.006 38.034 171.154 37.851-0.183 44.617-0.183 89.234-0.183 133.851-182.674 0.366-365.531 0-548.206 0.183-76.251 0.731-153.234-4.937-228.206 11.154zM789.76 283.246c74.423-7.131 149.211-1.097 223.817-2.926 0.183 44.8 0.183 89.783 0 134.766-74.971-1.28-150.309 3.474-225.28-3.474-62.72-15.909-61.074-114.103 1.463-128.366z" />
<glyph unicode="&#xe92f;" glyph-name="status" horiz-adv-x="1041" d="M476.843 799.915c7.168 53.589-17.237 119.296 19.456 164.011 254.976 28.501 503.125-181.931 531.968-434.859 0.683-35.669 20.309-88.576-21.675-108.373-47.787-4.949-95.915-2.389-143.872-2.219 13.312-169.643-77.653-343.381-231.936-418.645-190.123-102.741-450.389-31.573-559.787 155.136-112.64 173.739-68.096 424.619 95.232 550.912 86.528 70.485 200.363 99.84 310.613 94.037zM564.565 883.2c-0.512-63.317-0.341-126.635-0.341-189.952 49.664 48.299 99.157 96.939 147.627 146.603-47.275 20.139-96.939 33.621-147.285 43.349zM578.048 582.144c-22.869-19.456-11.776-52.395-16.384-78.336 22.528-0.171 45.056-0.341 67.584-0.341 75.264 73.557 149.504 148.139 224.597 221.867-22.357 21.845-44.715 43.861-66.731 66.048-69.803-69.632-140.629-138.24-209.067-209.237zM267.947 670.208c-110.763-59.904-181.931-186.027-172.715-311.979 5.803-105.813 63.488-208.043 153.429-264.875 130.56-87.723 321.877-67.755 430.080 46.933 72.704 72.192 103.936 176.981 97.109 277.845-82.773 0.853-165.376-1.365-247.979 0.512-23.723-3.243-52.395 13.312-49.323 40.107-2.048 85.163 0.171 170.667-2.389 256-71.851 2.901-145.408-7.851-208.213-44.544zM753.835 503.467c64 0 128.171-0.171 192.171 0.171-9.728 50.347-23.552 99.669-43.691 146.944-50.347-48.299-99.499-97.621-148.48-147.115z" />
<glyph unicode="&#xe930;" glyph-name="information-outline" d="M150.016 98.816c-96.436 93.233-156.308 223.762-156.308 368.276 0 282.77 229.23 512 512 512 144.514 0 275.043-59.872 368.137-156.164l0.138-0.144c88.925-91.979 143.724-217.436 143.724-355.692 0-282.77-229.23-512-512-512-138.256 0-263.713 54.799-355.836 143.863l0.144-0.138zM801.792 171.008c74.164 74.164 120.036 176.621 120.036 289.792 0 226.342-183.486 409.828-409.828 409.828-113.171 0-215.628-45.872-289.792-120.036v0c-74.164-74.164-120.036-176.621-120.036-289.792 0-226.342 183.486-409.828 409.828-409.828 113.171 0 215.628 45.872 289.792 120.036v0zM460.8 409.6v102.4h102.4v-307.2h-102.4v204.8zM460.8 716.8h102.4v-102.4h-102.4v102.4z" />
<glyph unicode="&#xe931;" glyph-name="analytics2" d="M535.85 972.8h79.846c113.288-11.147 219.836-64.94 297.090-148.415 35.386 27.609 59.755 85.29 111.214 79.976v-25.017c-27.091-30.331-56.644-58.459-85.29-87.234 47.052-68.18 77.513-147.249 85.29-229.817v-73.106c-13.092-131.824-83.735-257.555-194.56-331.439-146.471-102.27-352.567-101.363-500.723-2.852-52.237-52.496-104.863-104.604-156.711-157.489-18.795-19.573-40.053-36.683-64.681-48.608h-36.942c-34.090 9.073-59.496 34.997-70.384 68.31v35.775c13.999 39.793 47.311 66.754 78.161 93.197 5.833-7.388 17.499-22.165 23.332-29.553-19.702-21.647-43.034-40.571-57.94-65.977-18.925-40.701 40.571-82.827 71.68-49.385 61.829 57.551 119.38 119.51 179.913 178.357-21.517 21.128-42.904 42.515-64.032 64.162-12.573-11.795-25.146-23.721-37.719-35.516-7.907 3.111-23.721 9.462-31.498 12.573 12.184 20.998 26.961 40.182 43.034 58.459-21.517 37.331-39.923 76.217-55.477 116.399-49.515-27.868-89.568-80.365-149.452-83.475v27.998c44.849 34.997 92.938 65.329 139.083 98.252-22.554 128.713 7.388 267.407 91.382 368.899 74.143 93.845 187.431 151.267 305.385 165.525zM500.205 924.581c-67.014-13.092-130.398-43.812-182.765-87.623-146.601-118.862-188.727-344.531-93.067-507.593 92.030-172.784 318.347-255.222 499.686-180.431 185.487 67.791 299.034 283.091 247.445 474.281-45.367 204.411-266.37 346.734-471.299 301.367zM511.222 860.549c103.307 21.128 215.429-9.073 293.46-80.105 88.919-77.902 131.046-204.152 107.066-319.903-29.035-162.544-189.764-287.109-354.511-273.369-166.821 6.611-312.514 152.563-318.866 319.384-13.481 164.488 110.696 324.699 272.851 353.993zM484.65 811.164c-118.343-37.071-202.337-153.082-207.392-276.35 9.333 6.351 27.998 18.795 37.331 25.146-3.241 37.071 19.702 79.457 61.57 77.383 38.238 1.685 59.496-34.868 62.866-68.439 28.516-19.832 57.422-38.886 86.327-58.329 21.647 6.092 43.812 9.592 66.106 10.499 36.942 32.275 73.495 64.81 109.27 98.252-13.74 53.533 35.905 98.252 87.883 81.272 4.796 5.055 14.258 15.295 18.925 20.35-78.55 89.179-209.207 129.879-322.884 90.216zM807.793 605.456c-18.147-26.054-51.978-23.461-79.328-17.888-35.516-31.238-70.902-62.607-105.511-94.752 12.962-36.683-1.296-73.365-34.349-92.808-0.778-58.070-0.518-116.14-0.13-174.080 53.404 5.055 105.252 20.221 151.267 47.959 0.907 60.144-2.722 120.547 1.685 180.561l10.888 8.555c6.481-1.815 19.443-5.314 25.924-7.129 4.407-49.904 0.648-100.067 2.463-149.971 104.604 94.882 127.546 262.481 50.941 381.472-23.461-22.035-2.592-58.848-23.85-81.92zM745.835 654.323c-21.517-22.554 26.313-46.923 31.498-17.628 16.073 17.888-26.831 38.238-31.498 17.628zM364.492 594.568c-13.092-9.073-9.333-43.552 11.536-35.386 32.146-4.666 18.665 53.274-11.536 35.386zM398.453 516.926c-5.703-76.087-0.518-152.952-2.204-229.428 45.237-31.238 96.697-52.107 151.137-59.885 0.259 57.163 0.648 114.455-0.13 171.617-26.054 17.499-42.256 43.682-42.127 75.569-29.553 20.221-59.755 39.534-89.438 59.625-4.277-4.407-12.962-13.092-17.239-17.499zM279.98 485.428c10.758-58.848 36.553-113.807 74.791-159.692 1.685 66.106 0.259 132.213 1.167 198.319-30.461 1.685-51.978-23.98-75.957-38.627zM557.756 479.854c-20.48-16.203-2.592-50.682 22.554-35.646 16.98 17.11 0 42.386-22.554 35.646zM744.279 539.868c20.61 17.628 47.441-8.814 31.627-30.331-21.647-16.203-48.737 8.425-31.627 30.331zM119.899 190.801c10.629 18.536 44.071-2.333 32.924-20.221-6.092-32.924-60.014-1.296-32.924 20.221z" />
<glyph unicode="&#xe932;" glyph-name="search3" horiz-adv-x="931" d="M0 972.8h930.909v-290.577c-212.247-8.511-425.159-1.197-637.673-3.591-97.745 1.463-195.624-3.458-293.236 2.793v291.375zM33.247 939.42c0-75.803 0.133-151.605 0-227.408 201.076-0.399 402.153 0 603.362-0.266 0.266 75.936 0 151.871 0.133 227.674-201.209 0.133-402.286 0.133-603.495 0zM669.989 711.879c75.936 0 151.871-0.266 227.807 0.133-0.266 75.803-0.133 151.605-0.266 227.541-75.803 0-151.605-0.133-227.408 0-0.399-75.936-0.133-151.738-0.133-227.674zM703.368 826.514c-15.294 54.924 53.594 103.73 100.538 71.68 34.71-18.751 34.843-60.775 26.065-94.022 13.166-13.964 26.996-27.528 37.768-43.62-14.629-40.827-44.285 5.585-62.371 18.352-40.162-13.964-93.889 0.798-102.001 47.609zM764.010 873.725c-41.758-3.99-34.311-71.68 7.713-67.158 45.482 2.793 35.641 75.67-7.713 67.158zM0 632.087c61.706 6.117 123.811 2.66 185.65 3.325 248.42-1.33 496.972 2.793 745.259-2.261v-289.38c-199.215-8.245-398.961-1.197-598.442-3.458-110.778 1.064-221.689-2.66-332.468 2.261v289.513zM32.582 600.968c1.596-75.803-0.266-151.605 1.33-227.275 287.917 1.596 575.834 0.133 863.751 0.665 0 75.936 0 151.738-0.133 227.674-288.316-0.665-576.632 1.463-864.948-1.064zM72.478 567.988c49.338 4.788 99.474 4.256 148.945 0.266 18.219-48.939 3.458-106.789 7.58-159.052-54.525-5.054-109.448-5.319-163.973 0.266 4.522 51.998-10.24 110.246 7.447 158.521zM97.214 440.453c32.715-1.064 65.563-1.463 98.277-1.33 0 32.582-0.266 65.031-0.931 97.612-31.917-0.266-63.701-0.266-95.618 0-0.665-32.050-1.197-64.1-1.729-96.283zM265.043 545.912c198.284 3.325 397.365 4.256 595.649-0.532 1.729-6.915 5.319-20.879 7.048-27.794-201.076-4.655-402.685-4.389-603.628-0.266 0.266 7.181 0.665 21.411 0.931 28.592zM270.762 460.002c91.628 3.99 183.655 0.798 275.416 1.596 19.815 4.123 47.609-9.575 27.927-32.316-102.4-2.394-205.332-4.123-307.599 0.931l-7.713 14.097c3.059 3.857 9.043 11.703 11.969 15.692zM66.361 306.402c53.727 3.458 107.586 3.325 161.313 0.133 2.66-53.328 2.527-106.922 0.133-160.382-53.727-3.059-107.454-3.059-161.047-0.133-2.926 53.461-2.66 106.922-0.399 160.382zM98.144 275.416c0-32.316-0.133-64.765-0.133-97.214 32.449 0 64.898 0 97.346 0 0 32.449 0 64.898-0.133 97.214-32.316 0-64.765 0-97.081 0zM263.314 284.326c138.174 6.516 276.746 0.931 415.052 2.793 63.701-0.798 127.535 2.926 190.969-3.591-2.527-7.048-7.713-21.012-10.24-27.927-198.018-3.99-396.966-4.921-595.117 0.399-0.133 7.181-0.399 21.278-0.665 28.326zM267.836 197.486c101.469 4.389 203.47 3.192 304.939 0.665 23.406-20.214-8.245-37.768-27.528-31.784-92.027 1.064-184.187-1.862-276.081 1.463-0.266 7.447-0.931 22.342-1.33 29.656zM66.228 111.177c53.993 1.995 107.985 1.862 161.845 0.133 1.862-54.126 1.729-108.384 0.133-162.51h-159.451c-6.117 53.993-4.389 108.251-2.527 162.377zM98.011 79.26c0-32.449 0.133-64.765 0.266-97.214 32.316 0 64.499 0 96.815 0 0.133 32.449 0.266 64.765 0.266 97.214-32.449 0-64.898 0-97.346 0zM269.033 89.234c185.118 4.123 370.502 0.399 555.753 1.862 21.145 1.729 57.583-3.192 35.641-31.651-197.22-2.926-394.971-3.192-592.058 0.133l-8.777 10.373c2.394 4.788 7.048 14.496 9.442 19.283zM264.245 1.862c103.198 4.123 206.529 0.798 309.86 1.463 2.128-6.649 6.516-20.214 8.644-26.996-105.858-11.703-213.71-5.718-320.1-3.458 0.399 7.314 1.197 21.81 1.596 28.991z" />
<glyph unicode="&#xe933;" glyph-name="window" horiz-adv-x="1043" d="M339.079 972.8h285.754c118.823-23.571 273.195 37.675 365.742-63.758 47.722-50.041 42.312-123.46 42.506-187.605-2.512-200.549 1.739-401.292-1.739-601.842 1.159-89.842-83.079-172.921-174.466-163.067-44.438-1.932-133.12-5.796-177.558-7.728h-259.864c-51.007 1.546-153.214 4.83-204.22 6.569-99.695-21.253-204.8 62.406-203.448 163.647-3.091 207.698 0.773 415.589-1.546 623.481-1.352 61.247 2.318 130.222 50.427 174.853 72.646 73.998 186.445 41.733 278.412 55.451zM100.854 816.495c-7.922-61.826-3.478-124.426-4.057-186.638 283.242 0 566.485 0 849.727 0-0.58 62.213 3.864 124.812-4.057 186.638-5.796 42.119-50.427 68.009-90.614 64.145-220.45 0.773-440.706 0.58-661.156 0-39.801 3.671-84.238-22.412-89.842-64.145zM96.604 544.072c0-141.235-0.193-282.663 2.125-423.897-1.159-48.109 46.756-84.432 92.933-79.215 220.063-0.386 440.127-0.966 660.19-0.193 46.949-4.637 94.092 31.493 92.74 80.568 2.705 140.848 0 281.89 0.773 422.738-282.856 0-565.712 0-848.761 0zM200.936 792.924c44.824 31.686 96.411-46.177 46.949-72.646-46.563-35.743-96.217 44.824-46.949 72.646zM373.084 794.276c54.485 33.425 95.445-70.328 30.72-79.408-46.563-18.548-74.771 58.735-30.72 79.408zM545.811 796.015c53.325 24.151 89.842-63.372 32.459-82.5-51.393-16.616-81.147 60.474-32.459 82.5zM234.361 407.282c33.425 20.287 75.931 9.66 113.22 12.945 148.383-4.251 297.346 6.376 445.343-5.023 46.756-10.626 28.595-87.909-18.162-79.795-169.636-2.512-339.272-2.512-508.909 0-37.096-5.41-55.064 47.529-31.493 71.873zM257.932 247.885c132.54 7.342 265.854 0.386 398.587 3.091 47.915-1.546 97.183 5.603 143.94-6.762 38.448-20.094 16.229-85.398-27.049-77.283-172.534-0.193-345.455-6.955-517.603 1.546-44.438 1.932-43.085 80.181 2.125 79.408z" />
<glyph unicode="&#xe934;" glyph-name="pin2" horiz-adv-x="1043" d="M193.014 718.346c37.869 151.088 192.628 259.091 347.001 248.272 148.577-5.217 285.561-119.982 314.542-266.24 22.605-109.935-8.694-222.575-58.542-320.531 29.561-2.125 59.508-3.285 88.682-8.888 32.845-44.245 45.597-99.115 65.884-149.349 26.856-78.056 64.918-152.441 82.5-233.202-9.854-10.047-29.561-29.754-39.414-39.608h-906.53c-18.741 4.444-56.417 13.138-75.158 17.582 2.898 86.171 49.848 161.522 75.931 241.703 22.798 54.485 34.391 115.925 71.487 163.067 29.561 5.796 59.894 6.762 89.842 8.888-48.882 104.332-86.75 223.155-56.223 338.306zM268.365 625.22c8.694-168.284 111.288-322.27 252.715-410.373 138.53 98.343 262.762 250.977 253.682 429.887-4.251 129.642-123.653 238.032-252.136 236.293-136.018 4.83-261.796-119.016-254.261-255.807zM210.017 290.584c-30.72-83.466-61.44-166.738-93.126-249.817 269.718-0.193 539.629-0.193 809.54 0-31.686 83.659-63.372 167.318-95.445 250.977-32.072 0-64.338 0-96.604 0-62.986-65.111-127.517-135.052-212.915-170.216-87.137 33.425-153.793 102.98-215.62 170.409-31.879-0.386-63.758-0.773-95.831-1.352zM470.267 790.605c119.402 44.631 254.261-80.181 217.358-202.868-27.242-121.334-197.072-171.955-283.822-80.568-94.285 81.34-53.518 251.943 66.463 283.435zM470.847 696.9c-39.801-30.14-45.017-96.797-5.989-129.835 42.312-40.767 122.88-18.355 137.564 38.642 26.856 72.26-72.646 140.655-131.574 91.194z" />
<glyph unicode="&#xe935;" glyph-name="dorbin" d="M7.342 761.045c-0.58 136.791 152.441 244.794 280.537 193.401 86.75-26.663 133.506-112.64 145.485-197.458 52.166-0.386 104.525-0.386 156.691 0 14.104 84.432 61.054 170.409 147.611 197.458 128.097 51.973 283.049-56.030 279.378-193.98 1.739-199.39 1.546-398.78 0.193-597.977 0.966-96.217-72.839-185.286-167.125-203.254-103.559-24.537-217.745 43.665-245.374 146.258-13.525 61.054-9.081 124.232-9.66 186.252-55.451 0-110.708 0-166.158 0-2.512-86.75 14.104-187.411-47.529-258.705-68.782-87.716-208.857-105.298-294.835-33.038-54.871 41.926-83.852 111.094-80.761 179.49 1.159 193.787-1.932 387.768 1.546 581.555zM93.512 762.59c-5.217-140.075 0.966-280.344-2.512-420.42 78.829 45.404 174.66 44.631 253.102-0.966-3.864 139.689 2.125 279.765-2.512 419.454 0.58 67.623-64.338 123.266-130.222 120.948-61.247-3.091-116.504-56.996-117.857-119.016zM682.795 760.851c-5.41-139.882 1.159-279.958-2.898-419.84 78.442 46.177 174.273 46.177 253.102 0.966-2.512 133.7 0.58 267.206-0.773 400.712 3.478 51.2-22.992 102.98-70.328 124.812-76.124 44.438-178.91-21.253-179.103-106.651zM428.728 670.817c0-97.763 0-195.526 0-293.289 55.451 0 111.094 0 166.545 0 0 97.763 0 195.526 0 293.289-55.451 0-111.094 0-166.545 0zM181.229 286.72c-87.909-22.992-120.562-146.451-53.132-208.471 61.44-69.941 187.218-35.937 209.63 52.939 32.072 90.421-67.429 185.866-156.498 155.532zM780.172 289.038c-90.614-16.229-132.54-140.075-66.85-206.346 58.155-72.646 185.866-45.404 212.142 42.892 36.323 87.909-55.451 186.059-145.292 163.454z" />
<glyph unicode="&#xe936;" glyph-name="world" d="M354.922 942.273c245.953 85.398 540.402-52.939 628.504-298.506 108.776-258.705-45.211-584.26-314.155-663.668-266.24-95.638-585.226 79.215-647.438 354.729-70.134 250.011 85.205 532.094 333.090 607.445zM403.611 669.078c72.26 2.898 144.326 2.898 216.392 0-22.992 79.602-37.096 176.012-115.731 221.416-58.349-60.474-81.534-142.008-100.661-221.416zM112.254 598.75c65.691 25.31 132.927 45.79 201.902 59.894 14.104 68.782 34.777 136.211 59.701 201.902-119.016-47.143-214.46-142.587-261.603-261.796zM650.916 860.933c24.924-65.884 45.597-133.313 59.701-202.288 68.975-14.104 136.211-34.971 202.095-59.508-47.336 119.016-142.974 214.267-261.796 261.796zM391.438 581.362c-5.989-80.181-5.989-160.749 0-240.93 80.181-5.989 160.749-5.989 240.93 0 5.989 80.181 5.989 160.749 0 240.93-80.181 5.989-160.749 5.989-240.93 0zM123.266 501.953c-20.48-13.525-48.109-40.96-21.060-63.758 53.905-52.359 131.768-65.304 201.515-85.591-2.898 72.26-2.898 144.326 0 216.586-61.826-17.002-126.744-30.527-180.456-67.236zM720.085 569.189c2.898-72.066 2.898-144.326 0-216.586 73.226 25.89 186.252 31.493 212.528 116.891-49.848 65.691-138.337 77.476-212.528 99.695zM111.867 323.236c47.143-119.595 142.394-215.62 261.989-262.955-24.924 66.077-45.597 133.7-59.701 202.868-68.975 14.297-136.405 34.971-202.288 60.088zM709.651 261.989c-14.104-68.975-34.971-136.018-59.701-201.902 119.595 47.143 215.426 143.167 262.762 262.762-66.27-25.117-133.893-46.37-203.061-60.86zM403.997 252.715c16.423-61.633 29.561-126.358 66.463-179.683 12.558-20.48 40.38-46.949 63.372-22.798 52.746 54.291 66.463 132.154 85.977 202.482-71.873-2.898-143.94-2.898-215.813 0z" />
<glyph unicode="&#xe937;" glyph-name="chart" d="M604.74 953.093c24.731 20.48 60.281 10.047 89.455 8.888 168.477-20.48 308.552-169.443 322.27-338.306 1.932-27.822 8.115-72.26-31.106-76.51-121.528-6.569-244.021-3.478-365.742 1.159-5.023 5.023-15.070 14.877-20.094 19.9-1.159 127.71-15.070 258.705 5.217 384.869zM681.443 882.572c-0.773-84.238-0.193-168.477-0.386-252.715 84.238 0.193 168.477-0.386 252.715 0.386-25.89 125.778-126.358 226.632-252.329 252.329zM6.183 430.66c-0.386 247.692 228.565 466.983 476.45 450.174 30.14-5.796 27.822-39.221 29.754-62.213 0.193-118.823-0.773-237.645-0.386-356.468 124.812-1.739 249.817 2.898 374.629-1.546 27.242 1.546 51.2-17.775 46.177-47.143 5.989-254.454-233.395-479.348-487.463-457.515-243.828 5.603-451.333 231.656-439.161 474.711zM97.183 489.008c-40.767-191.855 94.865-399.553 287.106-438.774 111.867-27.435 229.144 6.183 322.27 69.941-76.317 77.090-153.020 153.793-230.11 230.11-21.060 23.378-50.814 45.211-48.302 80.181-2.898 122.687 0.966 245.374-1.159 368.060-159.203-24.151-301.983-147.997-329.805-309.518zM573.633 375.982c64.531-64.918 129.256-129.449 193.594-194.753 39.994 59.122 66.85 124.812 81.534 194.753-91.774 0.386-183.547 0.193-275.128 0z" />
<glyph unicode="&#xe938;" glyph-name="bag" horiz-adv-x="1043" d="M304.495 798.913c2.318 62.020 16.616 136.984 84.432 159.010 86.75 14.877 177.751 14.877 264.501 0.386 68.202-22.026 82.886-97.183 85.591-159.589 62.406 0 125.005 2.898 187.218-3.671 55.064-5.41 101.241-55.837 104.139-110.901 6.183-98.149 1.546-196.685-1.159-295.028-26.856-7.922-54.098-13.911-81.727-18.741-2.125-107.23 5.989-215.426-5.796-322.27-14.684-73.612-97.956-98.149-163.84-99.309h-477.029c-74.771-1.739-181.422 11.399-199.39 99.502-13.525 106.651-3.091 214.654-5.603 321.884-27.629 5.217-55.064 11.206-82.113 19.321 0.58 109.162-13.718 220.45 6.183 328.26 46.563 113.799 188.764 74.192 284.595 81.147zM390.666 799.686c87.33-1.159 174.66-1.159 261.989 0-5.989 24.537-2.318 53.518-19.514 73.998-68.009 13.718-138.53 9.274-207.312 4.637-36.903-6.569-27.435-52.166-35.164-78.635zM100.275 681.443c-6.762-72.839-1.932-146.258-3.671-219.291 97.377 0 194.753-0.193 292.323 0 7.149 25.697 0.966 58.928 23.958 77.669 72.066 9.66 146.451 9.66 218.518-0.193 21.253-19.707 16.036-51.78 23.185-77.476 97.377-0.193 194.753 0 292.13 0-3.285 77.476 6.569 156.305-7.149 233.008-22.412 25.117-59.122 15.65-88.682 18.548-232.235-1.546-464.664 0.386-697.093-0.773-20.48 0.58-52.746-5.023-53.518-31.493zM479.541 460.607c0-41.733 0-83.466 0-125.198 28.015-0.193 56.223-0.193 84.238 0 0 41.733 0 83.466 0 125.198-28.015 0.193-56.223 0.193-84.238 0zM182.388 375.982c2.125-101.241-4.444-202.675 2.705-303.529 1.739-32.266 42.119-32.072 65.497-32.072 193.208 1.932 386.415-2.898 579.236 2.318 6.569 4.637 19.321 13.525 25.697 17.968 13.138 104.332 1.739 210.403 5.217 315.508-70.328 0.193-140.655 0-210.983-0.193 1.932-41.153 2.318-83.079-12.945-122.3-75.544-1.739-153.793-14.104-227.598 5.023-27.242 32.652-12.365 78.829-15.843 117.277-70.328 0.386-140.655 0.386-210.983 0z" />
<glyph unicode="&#xe939;" glyph-name="piggy-bank" horiz-adv-x="1052" d="M442.845 972.8h56.811c73.223-13.326 159.351-61.3 161.455-145.043-46.571 37.032-80.798 94.685-142.659 108.432-82.902 23.285-177.447-24.127-209.008-104.224-37.734-84.866 7.575-200.452 98.613-227.524 49.096-3.367 100.997-8.837 148.69 5.33 72.241 30.58 86.549 113.622 113.061 178.428 12.625-38.856 7.435-79.395 1.403-118.812 69.295 17.394 137.188 66.49 210.551 50.779 27.213-45.87 13.326-101.699 11.923-151.776 25.67-38.155 48.956-77.852 70.137-118.672 30.299-14.869 60.879-29.458 88.232-49.236v-123.161c-40.96-34.507-99.875-40.96-134.242-83.603-34.648-40.679-75.608-75.467-120.495-104.364-9.819-47.132-20.34-94.264-33.806-140.555h-119.093c-12.905 27.915-22.304 57.092-32.263 85.988-51.2-2.665-102.54-3.787-153.74-2.805-8.416-27.774-16.833-55.408-25.249-83.182h-119.794c-17.815 42.924-26.792 88.653-36.331 133.962-46.15 33.245-93.703 68.313-121.618 119.093-33.385 54.567-39.557 119.794-41.661 182.356-30.72-33.105-70.277-54.847-113.762-66.209v30.86c24.267 12.344 49.236 23.566 73.924 35.209-21.742 20.34-70.698 30.159-61.159 68.734 6.032 20.199 23.285 35.349 44.467 37.734 35.489-2.665 47.272-39.698 64.105-64.807 16.973 92.721 77.291 196.243 178.288 210.832-40.118-54.707-105.907-89.355-130.595-155.424-34.648-90.336-30.72-200.452 25.81-281.53 28.476-41.381 74.345-65.227 108.292-101.138 16.693-37.173 19.638-78.974 28.335-118.532 26.933-0.14 53.865-0.281 80.798-0.561 6.453 28.335 12.765 56.53 19.218 84.866 69.295-5.19 139.432 7.715 207.886-2.525 10.801-26.652 16.973-54.707 24.548-82.341 26.091 0.14 52.182 0.281 78.273 0.421 8.697 41.661 12.344 85.006 28.756 124.563 40.118 38.996 90.056 67.893 124.563 113.201 28.756 41.381 81.78 47.833 122.179 72.942 5.892 30.86 8.557 64.526-2.385 94.545-24.688 17.815-55.408 26.792-77.572 48.114-20.34 28.616-34.507 61.019-51.060 91.879-34.788-56.25-109.694-73.924-163.98-34.788-57.933 35.068-48.535 109.975-55.268 167.627-25.81-21.322-50.919-43.345-76.309-65.227 11.502-9.398 34.227-28.055 45.729-37.453-67.191 2.805-133.401 21.883-200.872 13.607-41.802-4.489-83.323-11.222-125.405-13.045 13.887 11.783 27.774 23.426 41.942 34.928-47.272 45.308-90.617 102.681-87.812 171.836-4.629 103.101 78.694 193.017 178.148 210.271zM709.646 641.192c-34.367-72.942 35.349-168.89 116.147-134.382 46.852 50.499 41.942 127.649 37.173 191.895-52.603-14.027-107.169-27.353-153.319-57.512zM49.096 451.963c-11.643-16.132 15.851-35.91 28.896-22.724 11.222 16.132-15.711 36.471-28.896 22.724zM421.523 805.173c-7.154 39.277 37.313 52.182 62.141 70.838 20.48-14.729 41.1-29.458 60.879-45.168-13.747 0.842-41.1 2.385-54.847 3.086 0.842-15.43 1.824-30.86 2.665-46.431 15.43-16.693 43.765-27.494 45.589-53.024 8.697-39.557-33.245-58.073-56.671-80.938-28.335 16.833-62.001 31.562-69.716 67.472 20.48-8.416 40.679-17.113 60.879-25.951-0.14 19.077-0.281 38.295-0.421 57.372-16.412 16.693-48.956 25.67-50.499 52.743zM454.628 828.739c-17.815-12.484 1.403-46.29 20.48-31.842 17.254 12.765-1.262 46.431-20.48 31.842zM493.203 740.226c-13.186-16.132-10.1-25.67 9.398-28.756 13.326 15.991 10.1 25.53-9.398 28.756zM781.186 426.854c21.462 6.312 34.087-17.675 51.621-24.969 17.394-2.244 34.928 46.010 50.779 20.62 5.892-37.173-35.349-69.716-69.856-53.164-24.548 7.996-29.878 35.209-32.544 57.512z" />
</font>
</defs>
</svg>
